<?xml version="1.0" encoding="UTF-8" standalone="no"?>
<svg
   version="1.1"
   width="1067.0524"
   height="435.15369"
   viewBox="0 0 1067.0524 435.15369"
   xml:space="preserve"
   id="svg10"
   sodipodi:docname="essential.svg"
   inkscape:version="1.4 (86a8ad7, 2024-10-11)"
   xmlns:inkscape="http://www.inkscape.org/namespaces/inkscape"
   xmlns:sodipodi="http://sodipodi.sourceforge.net/DTD/sodipodi-0.dtd"
   xmlns="http://www.w3.org/2000/svg"
   xmlns:svg="http://www.w3.org/2000/svg"><sodipodi:namedview
   id="namedview10"
   pagecolor="#ffffff"
   bordercolor="#000000"
   borderopacity="0.25"
   inkscape:showpageshadow="2"
   inkscape:pageopacity="0.0"
   inkscape:pagecheckerboard="0"
   inkscape:deskcolor="#d1d1d1"
   inkscape:zoom="0.54003906"
   inkscape:cx="526.81374"
   inkscape:cy="213.87342"
   inkscape:window-width="1920"
   inkscape:window-height="1009"
   inkscape:window-x="3278"
   inkscape:window-y="-8"
   inkscape:window-maximized="1"
   inkscape:current-layer="svg10" />
<desc
   id="desc1">Created with Fabric.js 5.3.0</desc>
<defs
   id="defs1">
<clipPath
   clipPathUnits="userSpaceOnUse"
   id="clipPath11"><rect
     style="fill:none"
     id="rect12"
     width="1112.8824"
     height="487.0018"
     x="85.179024"
     y="298.12659" /></clipPath><clipPath
   clipPathUnits="userSpaceOnUse"
   id="clipPath12"><rect
     style="fill:none;stroke-width:0.907242"
     id="rect13"
     width="1009.6537"
     height="441.82849"
     x="-147.28926"
     y="-194.03494" /></clipPath><clipPath
   clipPathUnits="userSpaceOnUse"
   id="clipPath13"><rect
     style="fill:none;stroke-width:0.520521"
     id="rect14"
     width="579.27814"
     height="253.49443"
     x="-358.6431"
     y="-181.2607" /></clipPath><clipPath
   clipPathUnits="userSpaceOnUse"
   id="clipPath14"><rect
     style="fill:none;stroke-width:0.520521"
     id="rect15"
     width="579.27814"
     height="253.49443"
     x="-358.23703"
     y="-130.69621" /></clipPath><clipPath
   clipPathUnits="userSpaceOnUse"
   id="clipPath15"><rect
     style="fill:none;stroke-width:0.520521"
     id="rect16"
     width="579.27814"
     height="253.49443"
     x="-356.8414"
     y="-73.490295" /></clipPath><clipPath
   clipPathUnits="userSpaceOnUse"
   id="clipPath16"><rect
     style="fill:none;stroke-width:1.71474"
     id="rect17"
     width="1337.2969"
     height="1191.646"
     x="-675.60193"
     y="-552.77875" /></clipPath></defs>
<g
   transform="matrix(0.83218806,0,0,0.40867992,534.45206,225.90957)"
   id="background-logo"
   clip-path="url(#clipPath16)">
<rect
   style="opacity:1;fill:#ffffff;fill-rule:nonzero;stroke:none;stroke-width:0;stroke-linecap:butt;stroke-linejoin:miter;stroke-miterlimit:4;stroke-dasharray:none;stroke-dashoffset:0"
   paint-order="stroke"
   x="-640"
   y="-512"
   rx="0"
   ry="0"
   width="1280"
   height="1024"
   id="rect1" />
</g>
<g
   transform="matrix(1.9211538,0,0,1.9211538,657.77147,141.18615)"
   id="text-logo"
   clip-path="url(#clipPath15)">
<g
   paint-order="stroke"
   id="g1">
		<g
   id="text-logo-path-0">
<path
   style="opacity:1;fill:#000000;fill-rule:nonzero;stroke:none;stroke-width:1;stroke-linecap:butt;stroke-linejoin:miter;stroke-miterlimit:4;stroke-dasharray:none;stroke-dashoffset:0"
   paint-order="stroke"
   transform="translate(-188.48849,23.173258)"
   d="m 0,-27.81 v 0.93 c 0,0.94 0.02,1.87 0.06,2.81 0.07,1.24 0.13,2.49 0.2,3.77 0.14,2.88 0.38,5.67 0.47,8.52 0.04,1.31 0.12,2.66 0.33,3.97 0.18,0.91 0.36,1.85 0.36,2.77 0,0.48 0.08,0.96 0.26,1.45 0.37,1.01 0.9,1.95 1.78,2.53 0.67,0.43 1.36,0.72 2.08,0.87 0.58,0.13 1.18,0.19 1.78,0.17 0.16,0 0.32,0 0.49,-0.01 0.97,-0.08 1.81,-0.42 2.78,-0.47 0.79,0 1.58,-0.06 2.41,-0.06 2.52,-0.08 4.92,-0.15 7.43,-0.23 1.18,-0.05 2.39,-0.18 3.53,-0.31 0.63,-0.08 0.74,-0.29 0.56,-0.91 C 24.31,-2.59 23.91,-2.96 23.3,-3.14 22.51,-3.35 21.69,-3.59 20.85,-3.59 18.16,-3.67 15.53,-3.79 12.84,-3.83 11.73,-3.88 10.7,-3.88 9.6,-3.96 8.89,-4.03 8.33,-4.3 7.93,-4.77 7.59,-5.16 7.41,-5.62 7.41,-6.19 7.43,-6.3 7.43,-6.43 7.44,-6.54 c 0.07,-0.69 0.12,-1.37 0.12,-2.08 0,-3.82 0.01,-7.54 -0.12,-11.41 -0.08,-1.76 -0.11,-3.5 -0.11,-5.22 0,-0.66 0,-1.3 0.02,-1.95 0.03,-2.38 0.09,-4.77 0.21,-7.15 0,-0.08 0.03,-0.2 0.03,-0.33 0.02,-0.27 0.16,-0.4 0.43,-0.4 h 0.67 c 1.99,0.13 3.98,0.19 5.96,0.19 0.5,-0.01 1,-0.01 1.5,-0.01 0.61,0.01 1.22,0.01 1.83,0.03 1.1,0.02 2.21,0.15 3.34,0.36 0.21,0.04 0.45,0.14 0.63,-0.07 0.21,-0.24 0.06,-0.48 -0.07,-0.69 -0.63,-0.89 -1.16,-1.74 -2.17,-2.18 -0.71,-0.3 -1.39,-0.53 -2.05,-0.66 -1.66,-0.29 -3.3,-0.45 -4.96,-0.5 -0.53,-0.03 -1.05,-0.05 -1.57,-0.05 -0.27,0 -0.53,0 -0.79,0.02 -0.77,0.02 -1.56,0.02 -2.35,0 -0.66,0 -0.72,-0.06 -0.9,-0.69 -0.08,-0.41 -0.18,-0.84 -0.26,-1.23 -0.08,-0.5 -0.03,-0.58 0.47,-0.63 0.51,0 1.05,-0.01 1.58,0.04 2.24,0.17 4.43,0.22 6.67,0.4 2.06,0.21 4.08,0.27 6.09,0.35 1.03,0.05 2,0.04 3.01,0.04 0.52,-0.05 0.78,-0.42 0.47,-0.92 -0.11,-0.18 -0.26,-0.28 -0.43,-0.41 -0.89,-0.58 -1.86,-0.99 -2.94,-1.27 -3.01,-0.71 -6.02,-0.92 -9.05,-1.13 -1.4,-0.08 -2.77,-0.19 -4.19,-0.27 -0.9,-0.05 -1.79,-0.1 -2.68,-0.11 h -0.9 c -0.6,0 -1.19,0.01 -1.79,0.05 -0.71,0.08 -1.42,0.21 -1.85,0.83 C 0.44,-42.38 0,-41.06 0,-39.61 v 0.12 c 0.08,2.49 0.08,4.91 0,7.81 0,0.5 0,1.08 0.02,1.77 v 0.7 c 0,0.46 0,0.93 -0.02,1.4 z m 26.67,18.17 c -0.02,0.15 -0.02,0.31 -0.02,0.46 0,0.43 0.05,0.87 0.16,1.3 0.36,1.42 0.99,2.71 1.89,3.88 0.76,0.89 1.54,1.74 2.51,2.45 1.26,0.86 2.66,1.36 4.22,1.49 0.31,0.01 0.62,0.03 0.92,0.03 0.19,0.01 0.39,0.01 0.57,0 0.48,-0.02 0.96,-0.13 1.45,-0.34 2.3,-0.97 3.56,-2.68 4.19,-5.01 0.3,-0.98 0.51,-1.98 0.61,-3 0.06,-0.69 0.09,-1.38 0.09,-2.11 0,-0.32 0,-0.64 -0.01,-0.97 -0.11,-1.99 -0.63,-3.88 -1.58,-5.64 -0.71,-1.3 -1.5,-2.54 -2.39,-3.72 -1.09,-1.59 -2.14,-3.16 -3.03,-4.91 -0.25,-0.5 -0.48,-1.07 -0.43,-1.69 0.08,-1.28 0.66,-2.34 1.5,-3.31 0.3,-0.34 0.72,-0.43 1.11,-0.35 0.63,0.17 1.32,0.35 1.85,0.69 1.28,0.84 2.13,2.05 2.71,3.46 0.13,0.34 0.18,0.78 0.26,1.16 0.01,0.31 0.19,0.47 0.5,0.49 0.3,0.08 0.46,-0.08 0.59,-0.29 0.21,-0.28 0.26,-0.58 0.13,-0.89 -0.21,-0.5 -0.38,-0.9 -0.59,-1.4 -0.34,-0.72 -0.63,-1.48 -1.13,-2.14 -0.66,-0.92 -1.37,-1.74 -2.14,-2.5 -0.76,-0.71 -1.81,-1.24 -2.92,-1.5 -0.36,-0.08 -0.71,-0.13 -1.06,-0.13 -0.21,0 -0.44,0.02 -0.67,0.05 -0.58,0.08 -1.12,0.27 -1.62,0.58 -0.34,0.24 -0.71,0.45 -1.05,0.66 -1.72,1.18 -2.71,3.18 -2.84,5.22 -0.01,0.15 -0.01,0.31 -0.01,0.45 0,0.53 0.06,1.07 0.18,1.57 0.43,1.75 1.25,3.3 2.17,4.85 0.76,1.27 1.63,2.43 2.51,3.65 0.73,1.1 1.41,2.26 1.74,3.56 0.28,0.94 0.41,1.86 0.41,2.78 v 0.37 c -0.05,1.03 -0.23,2.06 -0.53,3.09 -0.21,0.76 -0.7,1.29 -1.23,1.79 -0.18,0.13 -0.39,0.21 -0.66,0.26 -0.6,0.05 -1.24,-0.04 -1.77,-0.42 -0.63,-0.5 -1.13,-0.97 -1.63,-1.63 -0.76,-1.1 -1.05,-2.32 -1.26,-3.59 -0.25,-1.44 -1.22,-2.37 -2.27,-3.34 -0.34,1.02 -0.77,1.87 -1.08,2.84 -0.18,0.59 -0.3,1.17 -0.35,1.75 z m 20.32,0 c -0.02,0.15 -0.02,0.31 -0.02,0.46 0,0.43 0.05,0.87 0.16,1.3 0.36,1.42 0.98,2.71 1.89,3.88 0.75,0.89 1.54,1.74 2.51,2.45 1.26,0.86 2.66,1.36 4.22,1.49 0.31,0.01 0.61,0.03 0.92,0.03 0.19,0.01 0.39,0.01 0.56,0 0.49,-0.02 0.97,-0.13 1.45,-0.34 2.31,-0.97 3.57,-2.68 4.19,-5.01 0.31,-0.98 0.52,-1.98 0.62,-3 0.06,-0.69 0.09,-1.38 0.09,-2.11 0,-0.32 0,-0.64 -0.01,-0.97 -0.12,-1.99 -0.63,-3.88 -1.58,-5.64 -0.71,-1.3 -1.5,-2.54 -2.39,-3.72 -1.09,-1.59 -2.14,-3.16 -3.03,-4.91 -0.25,-0.5 -0.48,-1.07 -0.43,-1.69 0.08,-1.28 0.66,-2.34 1.5,-3.31 0.3,-0.34 0.72,-0.43 1.11,-0.35 0.63,0.17 1.32,0.35 1.85,0.69 1.28,0.84 2.13,2.05 2.71,3.46 0.13,0.34 0.18,0.78 0.26,1.16 0.01,0.31 0.19,0.47 0.5,0.49 0.3,0.08 0.46,-0.08 0.59,-0.29 0.21,-0.28 0.26,-0.58 0.13,-0.89 -0.21,-0.5 -0.39,-0.9 -0.59,-1.4 -0.34,-0.72 -0.63,-1.48 -1.13,-2.14 -0.66,-0.92 -1.37,-1.74 -2.15,-2.5 -0.75,-0.71 -1.8,-1.24 -2.91,-1.5 -0.36,-0.08 -0.71,-0.13 -1.07,-0.13 -0.21,0 -0.43,0.02 -0.66,0.05 -0.58,0.08 -1.12,0.27 -1.62,0.58 -0.34,0.24 -0.71,0.45 -1.05,0.66 -1.73,1.18 -2.71,3.18 -2.84,5.22 -0.01,0.15 -0.01,0.31 -0.01,0.45 0,0.53 0.06,1.07 0.17,1.57 0.44,1.75 1.26,3.3 2.18,4.85 0.76,1.27 1.63,2.43 2.51,3.65 0.73,1.1 1.4,2.26 1.74,3.56 0.28,0.94 0.41,1.86 0.41,2.78 v 0.37 c -0.05,1.03 -0.23,2.06 -0.54,3.09 -0.21,0.76 -0.69,1.29 -1.22,1.79 -0.18,0.13 -0.39,0.21 -0.66,0.26 -0.6,0.05 -1.24,-0.04 -1.77,-0.42 -0.63,-0.5 -1.13,-0.97 -1.63,-1.63 -0.76,-1.1 -1.05,-2.32 -1.26,-3.59 -0.26,-1.44 -1.22,-2.37 -2.27,-3.34 -0.34,1.02 -0.77,1.87 -1.08,2.84 -0.18,0.59 -0.31,1.17 -0.35,1.75 z m 20.28,-4.68 v 0.24 c 0,0.8 0.05,1.61 0.15,2.43 0.21,2.34 0.8,4.5 1.85,6.61 1.55,2.9 3.82,4.67 7.12,5.01 0.36,0.05 0.71,0.06 1.05,0.06 1.16,0 2.21,-0.22 3.16,-0.67 1.22,-0.58 2.32,-1.45 3.29,-2.6 1.28,-1.43 2.41,-3 3.3,-4.72 0.97,-1.8 1.8,-3.58 2.64,-5.43 0.31,-0.63 0.03,-0.98 -0.27,-1.19 -0.2,-0.12 -0.42,-0.2 -0.7,-0.21 -0.88,0.14 -1.27,0.74 -1.61,1.53 -0.66,1.67 -1.5,3.24 -2.51,4.78 -0.69,1.15 -1.51,2.18 -2.53,3.07 -0.5,0.37 -0.9,0.7 -1.53,0.66 -1.48,-0.08 -2.74,-0.65 -3.76,-1.79 -1.17,-1.4 -1.74,-3.1 -2.04,-4.98 0.18,-0.05 0.27,-0.07 0.29,-0.07 2.38,-0.08 4.45,-0.93 6.38,-2.2 1.35,-0.92 2.58,-2.03 3.75,-3.18 2.05,-1.95 3.34,-4.3 3.87,-7.02 0.08,-0.49 0.13,-0.97 0.13,-1.44 0,-0.34 -0.02,-0.66 -0.06,-1 -0.12,-0.79 -0.38,-1.54 -0.79,-2.25 -0.84,-1.4 -1.79,-2.68 -3.15,-3.56 -0.38,-0.21 -0.77,-0.47 -1.11,-0.73 -0.69,-0.51 -1.43,-0.84 -2.21,-0.96 -0.58,-0.12 -1.17,-0.17 -1.77,-0.15 -0.19,0 -0.38,0 -0.58,0.02 -1.42,0.11 -2.75,0.53 -4.03,1.19 -1.5,0.79 -2.77,1.84 -3.82,3.14 -1.75,2.14 -2.75,4.64 -3.51,7.28 -0.51,1.81 -0.84,3.6 -0.92,5.45 -0.04,0.9 -0.06,1.79 -0.08,2.68 z m 7.11,-0.57 c -0.02,-0.3 -0.02,-0.61 -0.02,-0.92 0,-0.56 0.04,-1.13 0.08,-1.69 0.08,-0.85 0.21,-1.71 0.37,-2.56 0.31,-1.61 0.81,-3.13 1.52,-4.53 0.84,-1.67 2.08,-3.04 3.8,-3.88 0.65,-0.32 1.29,-0.49 1.93,-0.49 0.34,0 0.67,0.05 0.99,0.13 0.95,0.25 1.79,0.79 2.5,1.63 0.37,0.45 0.61,0.92 0.72,1.42 0.06,0.26 0.1,0.51 0.08,0.77 0,0.26 -0.03,0.52 -0.08,0.79 -0.4,2.4 -1.42,4.56 -3.27,6.24 -0.89,0.84 -1.79,1.58 -2.8,2.33 -1.24,0.92 -2.61,1.65 -4.16,1.99 -0.45,0.12 -0.87,0.14 -1.45,0.22 -0.08,-0.53 -0.16,-0.95 -0.21,-1.45 z m 18.14,-6.36 c 0,2.56 0,5.07 0.13,7.59 0.13,2.11 0.45,4.22 0.66,6.33 0.21,1.85 0.52,3.62 1.23,5.38 0.24,0.6 0.61,1.16 1.09,1.66 0.21,0.26 0.52,0.23 0.86,0.23 0.33,0 0.67,0 0.98,-0.13 0.4,-0.25 0.55,-0.36 0.72,-0.7 0.21,-0.35 0.36,-0.75 0.47,-1.19 0.18,-0.53 0.18,-1.06 0.26,-1.64 0.08,-0.63 0.29,-1.23 0.37,-1.86 0.21,-1.33 0.23,-2.69 0.56,-3.96 0.26,-0.89 0.39,-1.79 0.7,-2.67 0.51,-1.73 1.06,-3.42 1.64,-5.14 0.21,-0.66 0.44,-1.36 0.69,-1.99 0.63,-1.33 1.2,-2.62 1.82,-3.93 0.2,-0.46 0.42,-0.92 0.7,-1.38 0.46,-0.84 0.98,-1.68 1.48,-2.52 0.43,-0.72 0.82,-1.51 1.32,-2.27 0.42,-0.61 0.97,-1.16 1.64,-1.64 0,0.34 0.05,0.59 0,0.85 -0.08,1.94 -0.51,3.79 -0.82,5.67 -0.17,1.02 -0.4,2.03 -0.53,3.05 -0.21,1.27 -0.35,2.54 -0.48,3.82 -0.15,1.54 -0.32,3.08 -0.41,4.62 -0.03,0.39 -0.04,0.78 -0.04,1.15 v 0.29 c 0.01,0.46 0.01,0.95 0.01,1.43 -0.01,0.31 -0.01,0.61 -0.01,0.92 0,2.17 0.21,4.3 0.61,6.41 0.05,0.18 0.01,0.32 0.06,0.5 0.08,0.21 0.07,0.44 0.2,0.61 0.29,0.37 0.67,0.65 1.17,0.79 0.26,0.08 0.5,0.13 0.74,0.13 0.23,0 0.45,-0.03 0.66,-0.11 0.63,-0.24 1.1,-0.48 1.68,-0.69 0.58,-0.28 1.08,-0.54 1,-1.29 0,-0.05 0.03,-0.02 0.03,-0.07 0.26,-0.37 0.18,-0.69 0.1,-1.03 -0.08,-0.43 -0.15,-0.82 -0.23,-1.32 -0.27,-1.53 -0.29,-3.06 -0.37,-4.61 -0.05,-0.96 -0.06,-1.93 -0.06,-2.9 0,-0.64 0.01,-1.29 0.03,-1.93 0.05,-1.61 0.11,-3.22 0.23,-4.82 0.08,-1.85 0.27,-3.69 0.4,-5.54 0.06,-0.79 0.09,-1.58 0.09,-2.37 0,-0.29 0,-0.58 -0.01,-0.87 -0.03,-1.08 -0.18,-2.14 -0.42,-3.22 -0.13,-0.54 -0.31,-1.02 -0.64,-1.45 -0.28,-0.34 -0.54,-0.75 -1.07,-0.79 -0.43,0 -0.82,-0.05 -1.32,-0.1 h -0.05 c -0.47,0 -0.84,0.18 -1.11,0.51 -0.31,0.38 -0.58,0.63 -0.89,0.97 -0.51,0.6 -1.11,1.18 -1.54,1.84 -0.71,1.03 -1.29,2.03 -1.92,3.08 -0.76,1.27 -1.48,2.61 -2.14,3.96 -0.76,1.53 -1.42,3.09 -2.05,4.64 -0.63,1.42 -1.05,2.84 -1.39,4.34 -0.2,0.88 -0.5,1.78 -0.75,2.67 h -0.16 c -0.12,-0.63 -0.13,-1.19 -0.18,-1.82 -0.08,-1.98 -0.18,-3.93 -0.26,-5.91 -0.08,-1.86 -0.21,-3.63 -0.29,-5.48 -0.06,-1.28 -0.16,-2.44 -0.37,-3.66 -0.13,-0.89 -0.29,-1.66 -0.37,-2.55 -0.08,-0.72 -0.34,-1.27 -0.73,-1.9 -0.38,-0.63 -0.91,-0.67 -1.54,-0.59 -0.34,0.01 -0.65,0.21 -0.89,0.56 -0.5,0.64 -0.68,1.42 -0.76,2.18 -0.14,1.33 -0.24,2.62 -0.3,3.88 -0.08,2.04 -0.23,3.99 -0.23,5.98 z m 23.66,-17.23 c 0.34,0.18 0.64,0.4 0.98,0.53 0.4,0.13 0.84,0.23 1.22,0.23 0.15,0.01 0.31,0.01 0.47,0.01 0.24,0 0.47,-0.01 0.71,-0.03 0.39,-0.03 0.77,-0.05 1.14,-0.05 h 4.92 c 0.21,0 0.68,0.05 0.89,0.1 v 0.34 c -0.13,1.56 -0.54,8.31 -0.67,9.89 -0.08,1.63 -0.04,3.21 -0.09,4.89 0,1.82 0.09,13.82 0.47,15.64 0.46,2.39 1.03,4.66 2.2,6.8 0.79,1.4 1.76,2.4 3.31,2.9 0.5,0.18 1,0.31 1.49,0.39 0.21,0.05 0.42,0.06 0.65,0.05 0.31,0 0.61,-0.04 0.92,-0.1 0.63,-0.19 0.84,-0.56 0.53,-1.1 -0.37,-0.62 -0.69,-1.16 -1.03,-1.78 -0.18,-0.31 -0.29,-0.65 -0.42,-0.99 -0.08,-0.26 -0.13,-0.56 -0.21,-0.82 -0.56,-1.55 -0.9,-3.13 -1.21,-4.72 -0.11,-0.5 -0.21,-1.27 -0.29,-2.3 -0.14,-2.05 -0.32,-4.63 -0.4,-7.4 -0.13,-4.09 -0.24,-8.19 -0.24,-9.73 v -4.63 c 0,-0.71 0.06,-6.59 0.06,-7.3 0.24,-0.08 0.34,-0.08 0.47,-0.13 1.46,-0.08 2.85,-0.21 4.32,-0.29 0.4,-0.03 0.8,-0.04 1.19,-0.04 h 0.27 0.49 c 0.33,0 0.66,0 1,-0.02 0.46,0 0.95,0 1.38,-0.5 -0.19,-0.08 -0.27,-0.23 -0.4,-0.31 -0.44,-0.17 -0.86,-0.37 -1.29,-0.45 -1.93,-0.5 -3.85,-0.59 -5.83,-0.59 -0.54,-0.05 -1.07,-0.04 -1.6,-0.04 v -1.54 c 0,-1.34 0.24,-2.44 0.24,-3.74 0,-0.63 -0.05,-1.29 0.03,-1.92 0.13,-0.79 -0.25,-1.27 -0.78,-1.71 -0.31,-0.27 -0.63,-0.41 -0.97,-0.41 h -0.03 c -0.37,0.01 -0.74,0.06 -1.12,0.17 -0.7,0.18 -1.06,0.65 -1.06,1.4 v 0.2 0.29 c -0.08,0.66 -0.24,1.32 -0.32,1.98 -0.24,1.27 -0.42,2.26 -0.63,3.53 -0.08,0.63 -0.19,1.22 -0.27,1.85 -0.08,0.05 -0.45,0.07 -0.54,0.07 l -1.38,-0.04 c -0.47,0 -0.92,0.02 -1.39,0.04 -0.92,0.04 -1.85,0.11 -2.8,0.19 -1.14,0.13 -2.35,0.24 -3.53,0.37 -0.5,0.06 -0.79,0.34 -0.85,0.82 z m 24.78,20.76 v 0.7 c 0,0.83 0.03,1.62 0.08,2.41 0.08,1.01 0.16,2.03 0.24,3.06 0.19,2.33 0.45,4.59 0.66,6.93 0.11,0.58 0.24,1.08 0.37,1.66 0.07,0.3 0.18,0.61 0.36,0.95 0.5,1.01 1.14,1.86 2.41,2.04 0.07,0.02 0.13,0.02 0.2,0.02 0.34,0 0.59,-0.1 0.8,-0.28 0.24,-0.21 0.41,-0.53 0.52,-0.96 0.08,-0.31 0.01,-1.19 -0.07,-2.08 -0.04,-0.5 -0.09,-1.05 -0.16,-1.61 0,-0.5 0.02,-0.86 -0.03,-1.36 l -0.5,-6.92 c -0.08,-1.34 -0.05,-2.63 -0.13,-3.94 h -0.03 c 0,-0.56 0,-1.12 -0.02,-1.66 v -0.54 c 0,-0.37 0,-0.76 0.02,-1.13 v -0.53 c 0.02,-0.66 -0.02,-1.31 -0.08,-1.95 -0.08,-0.82 -0.23,-1.65 -0.42,-2.5 -0.18,-0.71 -0.34,-1.35 -0.72,-1.98 -0.21,-0.31 -0.46,-0.61 -0.79,-0.79 -0.25,-0.11 -0.47,-0.18 -0.71,-0.18 -0.26,0 -0.52,0.07 -0.78,0.19 -0.5,0.26 -0.8,0.65 -0.93,1.18 -0.11,0.44 -0.18,0.89 -0.19,1.32 -0.02,0.24 -0.02,0.48 -0.02,0.73 v 0.35 c 0.02,0.36 0.02,0.73 0.02,1.1 -0.05,0.75 -0.05,1.45 -0.1,2.2 0,0.6 0,1.2 0.02,1.79 v 0.58 c 0,0.41 0,0.79 -0.02,1.2 z m 1.13,-14.09 c 0.25,1.47 1.22,1.37 1.74,1.11 0.61,-0.17 1.54,-0.43 1.54,-1.01 -0.01,-0.31 -0.12,-0.66 -0.33,-1.06 -0.21,-0.41 -0.44,-0.65 -0.71,-0.76 -0.5,-0.21 -1.03,-0.44 -1.16,-0.36 -0.28,0.13 -0.49,0.29 -0.66,0.49 -0.31,0.37 -0.55,0.84 -0.42,1.59 z m 6.99,19.82 c -0.05,0.4 -0.06,0.82 -0.06,1.23 0,0.62 0.04,1.27 0.14,1.91 0.13,1.15 0.42,2.23 1.13,3.15 0.66,0.91 1.5,1.59 2.64,1.67 0.19,0.02 0.39,0.03 0.58,0.03 1.02,0 2,-0.24 2.92,-0.72 1.4,-0.66 2.4,-1.76 3.37,-2.93 0.38,-0.54 0.8,-1.07 1.14,-1.7 0.5,-0.82 0.76,-1.69 1.26,-2.53 1.04,-2.01 2.14,-3.99 2.93,-6.1 0.19,-0.5 0.48,-0.86 0.87,-1.36 0.08,0.66 0.08,1.2 0.13,1.78 0.21,2.12 0.48,4.14 0.69,6.25 0.13,1.4 0.36,2.77 0.66,4.12 0.52,2.24 1.13,4.39 2.43,6.27 0.41,0.47 0.91,0.74 1.29,0.82 0.25,0.08 0.49,0.12 0.73,0.1 0.24,-0.06 0.48,-0.15 0.72,-0.23 0.41,-0.19 0.86,-0.35 1.2,-0.69 0.45,-0.45 0.67,-0.72 0.59,-1.35 -0.05,-0.23 -0.08,-0.39 -0.09,-0.47 -0.37,-1.05 -0.71,-2.05 -0.97,-3.09 -0.47,-1.87 -1,-3.74 -1.39,-5.63 -0.69,-3.15 -1.22,-6.26 -1.48,-9.54 -0.08,-0.91 -0.11,-1.83 -0.11,-2.75 0,-0.37 0,-0.74 0.01,-1.11 0.05,-1.29 0.1,-2.58 0.17,-3.89 0.04,-0.5 0.08,-1.01 0.11,-1.54 0.01,-0.13 0.01,-0.26 0.01,-0.37 0,-0.41 -0.04,-0.79 -0.12,-1.18 -0.05,-0.37 -0.2,-0.77 -0.47,-1.18 -0.28,-0.4 -0.69,-0.62 -1.24,-0.67 -0.63,-0.08 -1.07,0.09 -1.2,0.59 -0.33,1.02 -0.64,1.97 -0.98,3.06 -0.08,0 -0.18,0.07 -0.3,0.07 -2.24,0.37 -4.35,1 -6.47,2.01 -2.11,1.02 -3.86,2.34 -5.54,3.94 -1.38,1.32 -2.51,2.8 -3.37,4.46 -0.75,1.4 -1.11,2.87 -1.45,4.41 -0.22,1.05 -0.38,2.11 -0.48,3.16 z m 6.24,0.29 c 0,-0.08 0,-0.18 -0.02,-0.26 0.02,-0.64 0.05,-1.29 0.13,-1.93 0.08,-0.89 0.16,-1.74 0.37,-2.58 0.21,-0.96 0.58,-1.92 0.92,-2.83 0.21,-0.58 0.53,-1.12 0.79,-1.7 0.63,-1.27 1.69,-2.14 2.83,-3.02 1.42,-1.05 2.94,-1.92 4.53,-2.71 0.39,-0.21 0.79,-0.39 1.29,-0.47 0.13,0.58 0,1.03 -0.13,1.53 -0.45,1.53 -1.09,3.01 -1.72,4.51 -0.47,1.15 -1.11,2.29 -1.55,3.47 -0.53,1.54 -1.48,2.77 -2.24,4.19 -0.4,0.75 -0.71,1.5 -1.1,2.25 -0.67,1.28 -1.62,2.27 -2.86,3 -0.07,0.05 -0.16,0.08 -0.29,0.13 h -0.18 c -0.34,-0.39 -0.48,-0.92 -0.56,-1.42 -0.13,-0.71 -0.2,-1.43 -0.21,-2.16 z m 21.75,-5.86 c 0,2.38 0.14,4.65 0.22,7.04 0.09,2.53 0.23,5.11 0.76,7.62 0.24,1.01 0.6,1.88 1.23,2.67 0.37,0.12 0.75,0.17 1.12,0.17 0.18,0 0.34,-0.02 0.5,-0.04 0.92,-0.08 2.08,-0.54 2.97,-1.85 0.76,-1.22 1.45,-2.4 1.95,-3.75 0.08,-0.33 0.21,-0.58 -0.1,-0.79 -0.3,-0.25 -0.61,-0.26 -0.9,-0.05 -0.44,0.37 -0.79,0.77 -1.18,1.16 -0.19,0.21 -0.29,0.42 -0.46,0.63 0,-0.54 0,-1.03 0.01,-1.53 v -0.5 c 0,-0.34 0,-0.66 -0.01,-1 0,-1.05 -0.07,-2.13 -0.07,-3.14 -0.05,-1.36 -0.1,-2.68 -0.1,-4.03 0,-1.89 0.02,-3.74 0.07,-5.68 0.08,-2.01 0.19,-4.02 0.19,-6.04 0.08,-3.03 0.08,-6.04 0.03,-9.07 0,-2.06 -0.04,-4.08 -0.12,-6.14 -0.08,-2.19 -0.31,-4.28 -1.33,-6.27 -0.24,-0.45 -0.54,-0.8 -0.88,-1.06 -0.32,-0.24 -0.71,-0.35 -1.18,-0.35 h -0.11 c -0.4,0 -0.76,0.12 -0.97,0.46 -0.27,0.39 -0.48,0.81 -0.63,1.24 -0.46,1.21 -0.53,2.44 -0.58,3.71 -0.08,2.64 -0.22,5.16 -0.27,7.75 -0.03,1.21 -0.05,2.42 -0.05,3.63 v 0.9 1.51 c 0,1.02 0,2.02 -0.01,3.03 -0.05,3.31 -0.1,6.5 -0.1,9.77 z m 27.5,-18.05 v 0.34 c 0,1.08 0.2,2.09 0.57,3.03 0.51,1.37 1.45,2.41 2.46,3.43 0.97,0.92 2.16,1.56 3.34,2.14 1.67,0.84 3.14,1.92 4.56,3.14 0.63,0.47 1.18,1.05 1.71,1.68 1.01,1.21 1.58,2.61 2.16,4.03 0.43,1.14 0.72,2.3 0.9,3.48 0.13,0.84 0.19,1.69 0.18,2.58 0,0.34 -0.02,0.69 -0.04,1.03 -0.08,1.42 -0.4,2.79 -1.41,3.83 -0.39,0.39 -0.79,0.79 -1.29,1.13 -1.05,0.66 -2.13,1.11 -3.24,1.35 -0.41,0.09 -0.82,0.13 -1.23,0.13 -0.74,0 -1.51,-0.13 -2.3,-0.4 -0.66,-0.19 -1.18,-0.53 -1.55,-1.01 -1.14,-1.5 -1.83,-3.11 -1.88,-5 -0.05,-1.14 -0.04,-2.22 -0.04,-3.32 0,-0.37 -0.04,-0.59 -0.35,-0.77 -0.21,-0.05 -0.45,-0.05 -0.69,0 -0.41,0.11 -0.87,0.24 -1.13,0.74 -0.08,0.13 -0.13,0.22 -0.13,0.29 -0.08,0.97 -0.23,1.93 -0.23,2.9 0.02,1.14 0.23,2.26 0.65,3.34 0.45,1.27 0.87,2.51 1.76,3.56 0.53,0.62 1.19,1.22 1.82,1.75 1.17,0.97 2.43,1.63 3.75,1.97 0.68,0.18 1.37,0.26 2.1,0.26 0.69,0 1.41,-0.08 2.15,-0.25 2.26,-0.53 4.13,-1.56 5.89,-2.98 0.24,-0.21 0.42,-0.4 0.53,-0.59 1.4,-1.86 2.37,-3.76 2.8,-6.03 0.26,-1.27 0.39,-2.55 0.39,-3.85 0,-0.84 -0.05,-1.68 -0.16,-2.53 -0.18,-1.4 -0.66,-2.74 -1.05,-4.09 -0.45,-1.53 -1.26,-2.94 -2.05,-4.29 -0.71,-1.14 -1.5,-2.14 -2.38,-3.16 -1.18,-1.33 -2.53,-2.46 -4.06,-3.36 -1.02,-0.63 -2.05,-1.1 -3.06,-1.73 -0.63,-0.34 -1.21,-0.72 -1.42,-1.48 -0.08,-0.24 -0.11,-0.48 -0.11,-0.73 0,-0.74 0.4,-1.41 1.19,-2.04 0.72,-0.57 1.5,-0.92 2.33,-1.1 0.44,-0.08 0.89,-0.13 1.36,-0.14 0.4,0 0.82,0.03 1.26,0.11 1.16,0.19 2.19,0.71 3.07,1.47 0.58,0.46 1.05,0.88 1.68,1.27 0.19,0.14 0.39,0.21 0.58,0.21 0.26,0 0.51,-0.11 0.77,-0.34 0.4,-0.34 0.52,-0.66 0.21,-1.19 -0.45,-0.73 -0.92,-1.42 -1.42,-2.18 -0.27,-0.34 -0.62,-0.74 -0.93,-1.08 -0.44,-0.5 -0.76,-0.98 -1.26,-1.48 -1.22,-1.24 -2.64,-2.11 -4.32,-2.55 -0.71,-0.21 -1.4,-0.29 -2.11,-0.37 -0.3,-0.03 -0.59,-0.04 -0.9,-0.04 -0.92,0 -1.8,0.14 -2.69,0.45 -2.37,0.82 -4.21,2.24 -5.48,4.28 -0.79,1.29 -1.18,2.66 -1.26,4.16 z m 23.64,21.29 v 0.24 c 0,0.8 0.05,1.61 0.15,2.43 0.21,2.34 0.8,4.5 1.85,6.61 1.55,2.9 3.82,4.67 7.12,5.01 0.36,0.05 0.71,0.06 1.05,0.06 1.16,0 2.21,-0.22 3.16,-0.67 1.22,-0.58 2.32,-1.45 3.29,-2.6 1.28,-1.43 2.41,-3 3.3,-4.72 0.97,-1.8 1.8,-3.58 2.64,-5.43 0.31,-0.63 0.03,-0.98 -0.27,-1.19 -0.2,-0.12 -0.42,-0.2 -0.7,-0.21 -0.88,0.14 -1.27,0.74 -1.61,1.53 -0.66,1.67 -1.5,3.24 -2.51,4.78 -0.69,1.15 -1.52,2.18 -2.53,3.07 -0.5,0.37 -0.9,0.7 -1.53,0.66 -1.48,-0.08 -2.74,-0.65 -3.76,-1.79 -1.17,-1.4 -1.74,-3.1 -2.04,-4.98 0.18,-0.05 0.27,-0.07 0.29,-0.07 2.38,-0.08 4.45,-0.93 6.38,-2.2 1.35,-0.92 2.58,-2.03 3.75,-3.18 2.05,-1.95 3.34,-4.3 3.87,-7.02 0.08,-0.49 0.13,-0.97 0.13,-1.44 0,-0.34 -0.02,-0.66 -0.07,-1 -0.11,-0.79 -0.37,-1.54 -0.78,-2.25 -0.84,-1.4 -1.79,-2.68 -3.15,-3.56 -0.38,-0.21 -0.77,-0.47 -1.11,-0.73 -0.69,-0.51 -1.43,-0.84 -2.21,-0.96 -0.58,-0.12 -1.17,-0.17 -1.77,-0.15 -0.19,0 -0.39,0 -0.58,0.02 -1.42,0.11 -2.75,0.53 -4.03,1.19 -1.5,0.79 -2.77,1.84 -3.82,3.14 -1.75,2.14 -2.75,4.64 -3.51,7.28 -0.51,1.81 -0.84,3.6 -0.92,5.45 -0.05,0.9 -0.06,1.79 -0.08,2.68 z m 7.11,-0.57 c -0.02,-0.3 -0.02,-0.61 -0.02,-0.92 0,-0.56 0.03,-1.13 0.08,-1.69 0.08,-0.85 0.21,-1.71 0.37,-2.56 0.31,-1.61 0.81,-3.13 1.52,-4.53 0.84,-1.67 2.08,-3.04 3.8,-3.88 0.65,-0.32 1.29,-0.49 1.93,-0.49 0.34,0 0.67,0.05 0.99,0.13 0.95,0.25 1.79,0.79 2.49,1.63 0.38,0.45 0.62,0.92 0.73,1.42 0.06,0.26 0.1,0.51 0.08,0.77 0,0.26 -0.03,0.52 -0.08,0.79 -0.4,2.4 -1.42,4.56 -3.27,6.24 -0.89,0.84 -1.79,1.58 -2.8,2.33 -1.25,0.92 -2.62,1.65 -4.16,1.99 -0.45,0.12 -0.87,0.14 -1.45,0.22 -0.08,-0.53 -0.16,-0.95 -0.21,-1.45 z m 18.08,-17.95 c -0.07,0.39 2.16,24.88 4.41,32.08 0.47,1.23 2.85,0.82 3.74,0.39 0.29,0 0.52,-0.08 0.69,-0.23 l 0.2,-0.19 c 0.37,-0.45 0.42,-1 0.46,-1.58 0.05,-0.32 0.12,-0.63 0.04,-0.93 -0.08,-0.39 -0.2,-0.81 -0.28,-1.2 -0.13,-0.85 -0.26,-1.8 -0.38,-2.69 -0.08,-0.88 -0.23,-1.82 -0.31,-2.74 -0.08,-0.4 -0.15,-0.79 -0.23,-1.22 -0.21,-1.47 -0.32,-2.92 -0.62,-4.33 -0.21,-1.15 -0.36,-2.24 -0.49,-3.39 0,-0.27 -0.01,-0.59 0.07,-0.8 0.46,-1.99 1.25,-3.82 2.3,-5.55 1.15,-1.85 2.51,-3.48 4.06,-4.98 0.34,-0.33 0.79,-0.61 1.23,-0.95 0.17,0.34 0.33,0.62 0.42,0.92 0.24,0.92 0.49,1.89 0.62,2.81 0.18,1.28 0.2,2.62 0.37,3.89 0.08,0.89 0.44,1.73 1.05,2.5 0.32,0.45 0.53,0.49 1.03,0.28 l 0.2,-1.89 c 0.08,-0.34 0.12,-0.77 0.12,-1.16 v -0.61 c 0,-0.71 -0.03,-1.4 -0.08,-2.08 -0.08,-0.89 -0.17,-1.77 -0.3,-2.68 -0.21,-1.46 -0.49,-2.85 -1.45,-4.02 -0.24,-0.33 -0.49,-0.62 -0.87,-0.66 -0.18,-0.02 -0.34,-0.02 -0.52,-0.02 -0.3,0 -0.59,0.02 -0.88,0.06 -0.46,0.08 -0.87,0.28 -1.28,0.58 -0.34,0.31 -0.67,0.54 -0.98,0.79 -1.5,1.18 -2.63,2.69 -3.77,4.19 -0.69,0.95 -1.26,1.92 -1.68,2.94 -0.08,0.21 -0.22,0.48 -0.4,0.82 -0.05,-0.21 -0.06,-0.24 -0.06,-0.32 -0.21,-1.15 -0.39,-2.29 -0.7,-3.44 -0.43,-1.67 -0.95,-3.3 -1.83,-4.72 -0.28,-0.38 -0.34,-0.76 -0.84,-0.76 -0.21,0 -0.47,-0.01 -0.73,0.07 v -0.03 c 0,0.01 -0.01,0.03 -0.03,0.03 -0.06,0 -0.11,0.02 -0.13,0.03 -0.56,0.19 -2.06,0.47 -2.17,0.79 z m 21.2,1.63 c 0.05,0.88 0.05,1.82 0.23,2.71 0.5,2.85 1.37,5.57 2.29,8.34 0.33,1.02 0.75,2.05 1.14,3.1 0.63,1.67 1.19,3.3 1.82,4.98 0.97,2.38 1.89,4.68 2.9,7.07 0.53,1.18 1.1,2.37 1.69,3.56 0.2,0.39 0.49,0.74 0.89,1.08 0.32,0.27 0.66,0.42 1,0.42 0.21,0 0.43,-0.07 0.68,-0.18 0.19,-0.08 0.32,-0.02 0.49,-0.06 0.34,-0.08 0.79,-0.07 1.13,-0.25 0.31,-0.12 0.5,-0.49 0.89,-0.54 0.05,0 0.02,-0.1 0.06,-0.15 0.58,-0.92 1.13,-1.83 1.66,-2.8 0.97,-1.81 1.58,-3.64 2.21,-5.58 0.97,-3.16 1.55,-6.35 2.3,-9.5 0.54,-2.11 0.84,-4.21 1.55,-6.27 0.24,-0.65 0.39,-1.32 0.6,-1.98 0.32,-0.97 0.59,-1.89 0.9,-2.9 0.08,-0.34 0.15,-0.79 0.23,-1.13 l 0.19,-1.27 c 0.05,-0.2 0.02,-0.36 0.06,-0.57 -0.51,-0.21 -0.95,-0.05 -1.29,0.26 -0.56,0.45 -0.83,1 -1.04,1.63 -0.63,1.88 -1.16,3.73 -1.79,5.67 -0.44,1.35 -0.84,2.74 -1.23,4.16 -0.43,1.62 -0.85,3.2 -1.24,4.88 -0.75,2.98 -1.75,5.81 -2.8,8.72 -0.19,0.46 -0.42,0.85 -0.73,1.48 -0.08,-0.26 -0.16,-0.39 -0.2,-0.47 -0.92,-2.11 -1.86,-4.16 -2.74,-6.27 -0.84,-1.98 -1.58,-3.9 -2.37,-5.88 -0.76,-1.66 -1.45,-3.37 -2.21,-5.04 -1.03,-2.44 -1.9,-4.8 -3.08,-7.19 -0.47,-0.92 -1.06,-1.82 -1.95,-2.45 -0.24,-0.19 -0.48,-0.29 -0.72,-0.29 -0.13,0 -0.26,0.03 -0.39,0.08 -0.37,0.15 -0.61,0.47 -0.72,0.94 -0.12,0.21 -0.13,0.45 -0.21,0.66 -0.08,0.34 -0.2,0.69 -0.2,1.03 z m 27.09,13.49 v 0.7 c 0,0.83 0.03,1.62 0.08,2.41 0.08,1.01 0.16,2.03 0.24,3.06 0.19,2.33 0.45,4.59 0.66,6.93 0.11,0.58 0.24,1.08 0.37,1.66 0.07,0.3 0.18,0.61 0.36,0.95 0.5,1.01 1.14,1.86 2.41,2.04 0.07,0.02 0.13,0.02 0.2,0.02 0.34,0 0.59,-0.1 0.8,-0.28 0.24,-0.21 0.41,-0.53 0.52,-0.96 0.08,-0.31 0.01,-1.19 -0.07,-2.08 -0.04,-0.5 -0.09,-1.05 -0.16,-1.61 0,-0.5 0.02,-0.86 -0.03,-1.36 l -0.5,-6.92 c -0.08,-1.34 -0.05,-2.63 -0.13,-3.94 h -0.03 c 0,-0.56 0,-1.12 -0.02,-1.66 v -0.54 c 0,-0.37 0,-0.76 0.02,-1.13 v -0.53 c 0.02,-0.66 -0.02,-1.31 -0.08,-1.95 -0.08,-0.82 -0.23,-1.65 -0.42,-2.5 -0.18,-0.71 -0.34,-1.35 -0.72,-1.98 -0.21,-0.31 -0.46,-0.61 -0.79,-0.79 -0.25,-0.11 -0.47,-0.18 -0.71,-0.18 -0.26,0 -0.52,0.07 -0.78,0.19 -0.5,0.26 -0.8,0.65 -0.93,1.18 -0.11,0.44 -0.18,0.89 -0.19,1.32 -0.02,0.24 -0.02,0.48 -0.02,0.73 v 0.35 c 0.02,0.36 0.02,0.73 0.02,1.1 -0.05,0.75 -0.05,1.45 -0.1,2.2 0,0.6 0,1.2 0.02,1.79 v 0.58 c 0,0.41 0,0.79 -0.02,1.2 z m 1.13,-14.09 c 0.25,1.47 1.22,1.37 1.74,1.11 0.61,-0.17 1.54,-0.43 1.54,-1.01 -0.01,-0.31 -0.12,-0.66 -0.33,-1.06 -0.21,-0.41 -0.44,-0.65 -0.71,-0.76 -0.5,-0.21 -1.03,-0.44 -1.16,-0.36 -0.28,0.13 -0.49,0.29 -0.66,0.49 -0.31,0.37 -0.55,0.84 -0.42,1.59 z m 7.14,16.73 c -0.09,0.77 -0.13,1.56 -0.12,2.35 0,0.85 0.05,1.72 0.15,2.59 0.37,3.05 1.37,5.72 3.61,7.84 1.56,1.49 3.2,2.28 4.93,2.36 0.11,0 0.22,0 0.34,0.02 1.61,0 3.2,-0.58 4.78,-1.76 1.42,-1.03 2.5,-2.41 3.34,-3.96 0.75,-1.42 1.22,-2.92 1.72,-4.46 0.21,-0.57 0.15,-1.11 -0.03,-1.65 -0.19,-0.63 -0.79,-0.72 -1.29,-0.33 -0.66,0.58 -0.95,1.32 -1.29,2.07 -0.37,0.71 -0.64,1.42 -1.03,2.05 -0.56,0.89 -1.23,1.69 -2.14,2.22 -0.45,0.28 -2.65,0.33 -3.07,0 -0.58,-0.5 -0.88,-0.87 -1.38,-1.45 -0.56,-0.62 -0.89,-1.3 -0.98,-2.06 -0.1,-0.74 -0.2,-1.51 -0.28,-2.3 -0.11,-0.91 -0.16,-1.81 -0.16,-2.69 0,-0.6 0.03,-1.21 0.08,-1.81 0.13,-1.48 0.34,-2.98 0.61,-4.48 0.28,-1.64 0.81,-3.17 1.57,-4.59 0.75,-1.4 1.61,-2.79 2.56,-4.13 0.26,-0.33 1.79,-0.64 2.3,-0.64 0.5,0.05 0.92,0 1.42,0.13 1.42,0.34 2.48,1.34 3.53,2.3 0.05,0.07 0.08,0.15 0.13,0.23 0.43,0.84 0.42,0.9 1.42,0.72 0.45,-0.56 0.67,-1.14 0.67,-1.77 0,-0.6 -0.13,-1.16 -0.4,-1.72 -0.4,-0.78 -1.16,-1.39 -1.82,-2.02 -1.27,-1.04 -2.79,-1.53 -4.38,-1.74 -0.47,-0.06 -0.94,-0.11 -1.42,-0.14 -0.13,-0.02 -0.26,-0.02 -0.39,-0.02 -0.34,0 -0.67,0.03 -1,0.1 -2.09,0.37 -3.85,1.17 -5.27,2.4 -1.41,1.24 -2.59,2.77 -3.54,4.62 -1.1,2.15 -1.77,4.45 -2.35,6.84 -0.37,1.62 -0.65,3.25 -0.82,4.88 z m 23.87,0.76 v 0.24 c 0,0.8 0.05,1.61 0.15,2.43 0.21,2.34 0.81,4.5 1.85,6.61 1.55,2.9 3.82,4.67 7.13,5.01 0.35,0.05 0.7,0.06 1.04,0.06 1.16,0 2.21,-0.22 3.16,-0.67 1.23,-0.58 2.32,-1.45 3.29,-2.6 1.29,-1.43 2.41,-3 3.3,-4.72 0.97,-1.8 1.81,-3.58 2.64,-5.43 0.31,-0.63 0.04,-0.98 -0.27,-1.19 -0.19,-0.12 -0.42,-0.2 -0.69,-0.21 -0.89,0.14 -1.28,0.74 -1.61,1.53 -0.67,1.67 -1.5,3.24 -2.52,4.78 -0.69,1.15 -1.51,2.18 -2.53,3.07 -0.5,0.37 -0.9,0.7 -1.53,0.66 -1.48,-0.08 -2.74,-0.65 -3.75,-1.79 -1.18,-1.4 -1.74,-3.1 -2.05,-4.98 0.18,-0.05 0.27,-0.07 0.29,-0.07 2.39,-0.08 4.45,-0.93 6.38,-2.2 1.35,-0.92 2.58,-2.03 3.76,-3.18 2.04,-1.95 3.33,-4.3 3.86,-7.02 0.08,-0.49 0.13,-0.97 0.13,-1.44 0,-0.34 -0.01,-0.66 -0.06,-1 -0.12,-0.79 -0.37,-1.54 -0.79,-2.25 -0.84,-1.4 -1.79,-2.68 -3.14,-3.56 -0.39,-0.21 -0.78,-0.47 -1.12,-0.73 -0.69,-0.51 -1.43,-0.84 -2.2,-0.96 -0.58,-0.12 -1.18,-0.17 -1.78,-0.15 -0.19,0 -0.38,0 -0.58,0.02 -1.41,0.11 -2.75,0.53 -4.02,1.19 -1.5,0.79 -2.78,1.84 -3.82,3.14 -1.76,2.14 -2.76,4.64 -3.52,7.28 -0.51,1.81 -0.83,3.6 -0.91,5.45 -0.05,0.9 -0.07,1.79 -0.09,2.68 z m 7.11,-0.57 c -0.02,-0.3 -0.02,-0.61 -0.02,-0.92 0,-0.56 0.04,-1.13 0.09,-1.69 0.08,-0.85 0.2,-1.71 0.37,-2.56 0.3,-1.61 0.8,-3.13 1.51,-4.53 0.84,-1.67 2.08,-3.04 3.8,-3.88 0.65,-0.32 1.29,-0.49 1.94,-0.49 0.34,0 0.66,0.05 0.98,0.13 0.95,0.25 1.79,0.79 2.5,1.63 0.37,0.45 0.61,0.92 0.72,1.42 0.07,0.26 0.1,0.51 0.08,0.77 0,0.26 -0.03,0.52 -0.08,0.79 -0.4,2.4 -1.42,4.56 -3.27,6.24 -0.88,0.84 -1.79,1.58 -2.8,2.33 -1.24,0.92 -2.61,1.65 -4.16,1.99 -0.45,0.12 -0.87,0.14 -1.45,0.22 -0.08,-0.53 -0.16,-0.95 -0.21,-1.45 z m 18.16,5.25 c -0.02,0.15 -0.02,0.31 -0.02,0.46 0,0.43 0.05,0.87 0.17,1.3 0.35,1.42 0.98,2.71 1.88,3.88 0.76,0.89 1.55,1.74 2.51,2.45 1.26,0.86 2.66,1.36 4.23,1.49 0.3,0.01 0.61,0.03 0.91,0.03 0.2,0.01 0.39,0.01 0.57,0 0.48,-0.02 0.97,-0.13 1.45,-0.34 2.3,-0.97 3.56,-2.68 4.19,-5.01 0.3,-0.98 0.51,-1.98 0.61,-3 0.07,-0.69 0.1,-1.38 0.1,-2.11 0,-0.32 0,-0.64 -0.02,-0.97 -0.11,-1.99 -0.63,-3.88 -1.58,-5.64 -0.71,-1.3 -1.5,-2.54 -2.38,-3.72 -1.1,-1.59 -2.15,-3.16 -3.03,-4.91 -0.26,-0.5 -0.49,-1.07 -0.44,-1.69 0.08,-1.28 0.66,-2.34 1.5,-3.31 0.31,-0.34 0.73,-0.43 1.11,-0.35 0.63,0.17 1.32,0.35 1.86,0.69 1.27,0.84 2.12,2.05 2.7,3.46 0.13,0.34 0.18,0.78 0.26,1.16 0.02,0.31 0.19,0.47 0.5,0.49 0.31,0.08 0.47,-0.08 0.6,-0.29 0.21,-0.28 0.25,-0.58 0.13,-0.89 -0.21,-0.5 -0.39,-0.9 -0.6,-1.4 -0.34,-0.72 -0.63,-1.48 -1.13,-2.14 -0.66,-0.92 -1.37,-1.74 -2.14,-2.5 -0.76,-0.71 -1.81,-1.24 -2.92,-1.5 -0.35,-0.08 -0.71,-0.13 -1.06,-0.13 -0.21,0 -0.44,0.02 -0.66,0.05 -0.58,0.08 -1.13,0.27 -1.63,0.58 -0.34,0.24 -0.71,0.45 -1.05,0.66 -1.72,1.18 -2.7,3.18 -2.83,5.22 -0.02,0.15 -0.02,0.31 -0.02,0.45 0,0.53 0.07,1.07 0.18,1.57 0.43,1.75 1.26,3.3 2.17,4.85 0.76,1.27 1.63,2.43 2.52,3.65 0.72,1.1 1.4,2.26 1.74,3.56 0.27,0.94 0.4,1.86 0.4,2.78 v 0.37 c -0.05,1.03 -0.23,2.06 -0.53,3.09 -0.21,0.76 -0.69,1.29 -1.23,1.79 -0.17,0.13 -0.38,0.21 -0.66,0.26 -0.59,0.05 -1.24,-0.04 -1.77,-0.42 -0.63,-0.5 -1.13,-0.97 -1.63,-1.63 -0.75,-1.1 -1.04,-2.32 -1.25,-3.59 -0.26,-1.44 -1.23,-2.37 -2.28,-3.34 -0.33,1.02 -0.77,1.87 -1.07,2.84 -0.18,0.59 -0.31,1.17 -0.36,1.75 z"
   stroke-linecap="round"
   id="path1" />
</g>
</g>
</g>
<g
   transform="matrix(1.9211538,0,0,1.9211538,660.45268,251.08754)"
   id="tagline-a06fac5a-ed26-46f4-9649-92258fcdcf16-logo"
   clip-path="url(#clipPath14)">
<g
   paint-order="stroke"
   id="g2">
		<g
   id="tagline-a06fac5a-ed26-46f4-9649-92258fcdcf16-logo-path-0">
<path
   style="opacity:1;fill:#6c2024;fill-rule:nonzero;stroke:none;stroke-width:0;stroke-linecap:butt;stroke-linejoin:miter;stroke-miterlimit:4;stroke-dasharray:none;stroke-dashoffset:0"
   paint-order="stroke"
   transform="translate(-124.78531,16.190975)"
   d="m -0.01,-12.21 v 0.31 c 0.01,0.91 0.04,1.83 0.12,2.75 0.06,1.2 0.32,2.34 0.55,3.51 0.22,0.93 0.54,1.8 0.97,2.6 0.43,0.79 1.07,1.46 1.93,1.98 0.64,0.4 1.29,0.69 1.97,0.88 C 5.93,-0.06 6.36,0 6.82,0 7.1,0 7.39,-0.02 7.68,-0.07 8.5,-0.21 9.3,-0.42 9.92,-1.06 c 0.32,-0.37 0.68,-0.7 1.03,-1.11 0.64,-0.76 1.2,-1.56 1.61,-2.5 0.43,-0.98 0.68,-2.05 0.83,-3.12 0.02,-0.15 0.03,-0.31 0.03,-0.45 0,-0.24 -0.02,-0.46 -0.08,-0.68 -0.09,-0.36 -0.14,-0.72 -0.16,-1.09 0,-0.05 -0.03,-0.05 -0.03,-0.11 -0.18,-0.4 -0.68,-0.5 -0.99,-0.16 -0.23,0.31 -0.38,0.61 -0.44,1.01 -0.07,0.8 -0.21,1.57 -0.4,2.3 -0.35,1.39 -0.92,2.59 -1.91,3.63 C 9.04,-2.93 8.67,-2.86 8.23,-2.99 8,-3.04 7.76,-3.19 7.52,-3.34 6.79,-3.89 6.41,-4.67 6.14,-5.53 5.88,-6.23 5.81,-7 5.68,-7.73 5.54,-8.52 5.44,-9.32 5.38,-10.12 5.33,-10.76 5.31,-11.4 5.31,-12.05 v -0.48 c 0,-0.8 0.04,-1.58 0.07,-2.37 0.06,-0.8 0.1,-1.55 0.19,-2.35 0.15,-1.29 0.29,-2.55 0.53,-3.84 0.23,-1.29 0.59,-2.48 1.23,-3.62 0.33,-0.56 0.69,-1.09 1.1,-1.58 0.41,-0.48 0.94,-0.87 1.58,-1.12 0.24,-0.1 0.49,-0.18 0.73,-0.26 0.12,-0.04 0.23,-0.06 0.36,-0.06 0.12,0 0.24,0.02 0.38,0.06 0.91,0.26 1.7,0.72 2.25,1.51 0.4,0.59 0.78,1.13 1.13,1.71 0.14,0.23 0.32,0.34 0.53,0.34 0.04,0 0.09,0 0.13,-0.01 0.28,-0.06 0.38,-0.33 0.44,-0.56 0.01,-0.05 0.02,-0.12 0.02,-0.21 0.01,-0.08 0.01,-0.17 0.01,-0.26 0,-0.81 -0.19,-1.58 -0.58,-2.26 -1.26,-2.25 -3.21,-3.23 -5.49,-3.41 -1.76,0.06 -3.2,0.4 -4.5,1.28 -1.49,1.05 -2.53,2.4 -3.33,4.06 -0.73,1.56 -1,3.2 -1.3,4.89 -0.41,1.97 -0.6,3.91 -0.72,5.93 -0.06,0.82 -0.08,1.63 -0.08,2.45 z m 16.77,1.08 c -0.05,0.47 -0.07,0.94 -0.07,1.42 -0.01,0.61 0.03,1.23 0.11,1.85 0.14,1.08 0.44,2.12 0.9,3.14 1.02,2.34 2.66,3.97 5.27,4.5 C 23.49,-0.13 24,0 24.53,0 c 1.22,0 2.41,-0.13 3.4,-0.99 0.08,-0.05 0.11,-0.05 0.17,-0.11 0.73,-0.53 1.44,-1.11 1.93,-1.91 0.46,-0.81 0.92,-1.59 1.36,-2.41 0.41,-0.9 0.68,-1.81 0.92,-2.72 0.27,-1.08 0.28,-2.17 0.31,-3.64 0.02,-0.1 0.02,-0.23 0.02,-0.35 0,-0.21 -0.02,-0.46 -0.05,-0.74 -0.06,-0.44 -0.11,-0.86 -0.19,-1.3 -0.15,-1.04 -0.27,-2.04 -0.51,-3.06 -0.4,-1.66 -0.91,-3.27 -2.02,-4.65 -0.49,-0.59 -1.05,-1.05 -1.67,-1.37 -0.54,-0.27 -1.15,-0.4 -1.81,-0.39 -0.1,-0.01 -0.19,-0.01 -0.29,0 -1.67,0.08 -3.14,0.65 -4.4,1.72 -1.9,1.63 -3.11,3.65 -3.91,5.98 -0.55,1.56 -0.89,3.15 -1.03,4.81 z m 4.94,1.63 c 0.05,-2.84 0.47,-5.08 1.27,-7.24 0.48,-1.3 1.13,-2.46 1.95,-3.52 0.29,-0.37 0.58,-0.61 0.88,-0.7 0.1,-0.03 0.2,-0.04 0.31,-0.04 0.24,0 0.49,0.06 0.79,0.17 1.04,0.41 1.7,1.2 2.25,2.11 0.62,0.98 0.94,2.11 1.17,3.24 0.19,0.8 0.29,1.6 0.44,2.4 0.26,1.12 0.22,2.25 0.1,3.42 -0.13,1.35 -0.3,2.67 -0.92,3.93 -0.4,0.77 -0.77,1.53 -1.57,1.93 -0.39,0.18 -0.78,0.36 -1.21,0.42 -0.17,0.01 -0.33,0.02 -0.48,0.02 -0.7,0 -1.36,-0.14 -1.93,-0.44 C 24.06,-4.14 23.46,-4.69 22.97,-5.42 22.51,-6.13 22.19,-6.85 22,-7.58 21.81,-8.31 21.71,-8.95 21.7,-9.5 Z m 11.79,-13.24 c 0.02,0.13 0.11,0.21 0.26,0.25 0.39,0.03 0.74,0.09 1.14,0.09 1.84,0.05 3.65,0.05 5.49,0.11 0.06,0 0.11,0.02 0.2,0.05 v 0.58 c -0.04,0.97 -0.04,1.93 0,2.87 0,0.8 0.1,1.6 0.13,2.39 0.03,1.88 0.24,3.7 0.7,5.54 0.5,2.03 1.03,4.05 1.65,6.08 0.37,1.2 0.86,2.34 1.54,3.42 0.31,0.5 0.78,0.7 1.24,0.97 0.22,0.14 0.43,0.2 0.67,0.32 0.16,0.08 0.32,0.06 0.46,-0.04 0.12,-0.1 0.22,-0.29 0.3,-0.59 0.06,-0.2 0.08,-0.5 0.08,-0.89 0,-0.16 0,-0.33 -0.01,-0.52 -0.06,-1.11 -0.19,-2.02 -0.28,-3.04 -0.15,-1.62 -0.41,-3.23 -0.64,-4.81 -0.22,-1.47 -0.53,-2.92 -0.62,-4.42 -0.17,-2.05 -0.27,-4.11 -0.4,-6.18 -0.03,-0.46 0,-0.95 0,-1.5 0.15,0 0.3,-0.01 0.44,0.03 1,0.03 2.01,0.07 3.04,0.11 0.95,0.03 1.86,0.02 2.8,0.02 0.06,0 0.14,-0.03 0.23,-0.09 0.26,-0.18 0.48,-0.39 0.72,-0.57 -0.13,-0.37 -0.25,-0.62 -0.37,-0.74 -0.14,-0.13 -0.39,-0.19 -0.73,-0.23 -1.43,-0.14 -2.82,-0.24 -4.26,-0.37 -0.62,-0.05 -1.24,-0.08 -1.91,-0.13 0.03,-0.71 0.03,-1.38 0.09,-2.02 0.06,-0.85 0.18,-1.7 0.35,-2.57 0.09,-0.61 0.24,-1.2 0.46,-1.81 0.14,-0.42 0.48,-0.85 0.94,-0.99 0.16,-0.06 0.33,-0.08 0.5,-0.08 0.07,0 0.16,0.01 0.25,0.02 0.77,0.11 1.43,0.69 1.48,1.35 0.03,0.35 0.11,0.66 0.23,1.01 0.14,0.41 0.38,0.63 0.74,0.63 0.08,0 0.17,-0.01 0.27,-0.04 0.04,-0.57 0.16,-1.13 0.25,-1.7 0.06,-0.31 0.09,-0.61 0.09,-0.89 0,-0.28 -0.05,-0.56 -0.14,-0.85 -0.03,-0.13 -0.01,-0.22 -0.04,-0.34 -0.08,-0.26 -0.15,-0.52 -0.21,-0.77 -0.07,-0.25 -0.24,-0.47 -0.5,-0.63 -0.44,-0.28 -0.87,-0.51 -1.33,-0.68 -0.4,-0.15 -0.8,-0.23 -1.23,-0.23 -0.08,0 -0.14,0 -0.22,0.01 -0.59,0.03 -1.21,0.14 -1.87,0.31 -0.62,0.16 -1.14,0.42 -1.58,0.77 -0.78,0.64 -1.34,1.39 -1.69,2.25 -0.7,1.68 -1.06,3.43 -1.28,5.27 -0.07,0.64 -0.16,1.25 -0.25,1.95 -0.22,0 -0.39,0.03 -0.6,0.03 -0.2,-0.01 -0.4,-0.01 -0.62,-0.01 -0.78,0 -1.57,0.04 -2.34,0.14 -0.99,0.11 -1.98,0.21 -2.98,0.3 -0.39,0.04 -0.7,0.49 -0.64,0.86 z m 21.11,0 c 0.03,0.13 0.11,0.21 0.26,0.25 0.39,0.03 0.74,0.09 1.15,0.09 1.84,0.05 3.65,0.05 5.49,0.11 0.05,0 0.1,0.02 0.19,0.05 v 0.58 c -0.03,0.97 -0.03,1.93 0,2.87 0,0.8 0.1,1.6 0.13,2.39 0.04,1.88 0.24,3.7 0.7,5.54 0.51,2.03 1.03,4.05 1.65,6.08 0.37,1.2 0.87,2.34 1.54,3.42 0.31,0.5 0.79,0.7 1.25,0.97 0.21,0.14 0.42,0.2 0.66,0.32 0.17,0.08 0.32,0.06 0.46,-0.04 0.12,-0.1 0.22,-0.29 0.3,-0.59 0.06,-0.2 0.08,-0.5 0.08,-0.89 0,-0.16 0,-0.33 -0.01,-0.52 -0.06,-1.11 -0.19,-2.02 -0.28,-3.04 -0.15,-1.62 -0.41,-3.23 -0.64,-4.81 -0.21,-1.47 -0.53,-2.92 -0.62,-4.42 -0.17,-2.05 -0.27,-4.11 -0.39,-6.18 -0.04,-0.46 0,-0.95 0,-1.5 0.14,0 0.29,-0.01 0.44,0.03 1,0.03 2.01,0.07 3.03,0.11 0.95,0.03 1.86,0.02 2.81,0.02 0.05,0 0.13,-0.03 0.22,-0.09 0.26,-0.18 0.48,-0.39 0.72,-0.57 -0.12,-0.37 -0.25,-0.62 -0.37,-0.74 -0.14,-0.13 -0.38,-0.19 -0.73,-0.23 -1.43,-0.14 -2.82,-0.24 -4.26,-0.37 -0.62,-0.05 -1.23,-0.08 -1.91,-0.13 0.04,-0.71 0.04,-1.38 0.09,-2.02 0.06,-0.85 0.18,-1.7 0.35,-2.57 0.09,-0.61 0.25,-1.2 0.46,-1.81 0.15,-0.42 0.48,-0.85 0.94,-0.99 0.16,-0.06 0.33,-0.08 0.5,-0.08 0.08,0 0.17,0.01 0.26,0.02 0.76,0.11 1.42,0.69 1.47,1.35 0.03,0.35 0.11,0.66 0.23,1.01 0.14,0.41 0.39,0.63 0.75,0.63 0.07,0 0.16,-0.01 0.27,-0.04 0.03,-0.57 0.15,-1.13 0.24,-1.7 0.06,-0.31 0.09,-0.61 0.09,-0.89 0,-0.28 -0.04,-0.56 -0.13,-0.85 -0.04,-0.13 -0.01,-0.22 -0.05,-0.34 -0.08,-0.26 -0.14,-0.52 -0.21,-0.77 -0.07,-0.25 -0.24,-0.47 -0.5,-0.63 -0.43,-0.28 -0.87,-0.51 -1.33,-0.68 -0.39,-0.15 -0.8,-0.23 -1.23,-0.23 -0.07,0 -0.14,0 -0.22,0.01 -0.58,0.03 -1.2,0.14 -1.86,0.31 -0.62,0.16 -1.15,0.42 -1.59,0.77 -0.77,0.64 -1.33,1.39 -1.68,2.25 -0.71,1.68 -1.07,3.43 -1.28,5.27 -0.08,0.64 -0.17,1.25 -0.26,1.95 -0.21,0 -0.38,0.03 -0.6,0.03 -0.2,-0.01 -0.4,-0.01 -0.61,-0.01 -0.79,0 -1.58,0.04 -2.35,0.14 -0.99,0.11 -1.98,0.21 -2.98,0.3 -0.39,0.04 -0.69,0.49 -0.64,0.86 z m 21.16,12.76 v 0.16 c 0,0.57 0.03,1.13 0.1,1.7 0.15,1.63 0.56,3.13 1.29,4.6 1.08,2.03 2.66,3.26 4.97,3.5 0.24,0.03 0.49,0.04 0.73,0.04 0.81,0 1.54,-0.15 2.2,-0.47 0.85,-0.4 1.62,-1.01 2.29,-1.81 0.9,-1 1.68,-2.09 2.3,-3.29 0.68,-1.26 1.26,-2.49 1.84,-3.78 0.22,-0.44 0.03,-0.69 -0.19,-0.83 -0.13,-0.08 -0.29,-0.14 -0.48,-0.15 -0.62,0.1 -0.89,0.52 -1.12,1.07 -0.46,1.17 -1.05,2.25 -1.76,3.33 -0.48,0.8 -1.05,1.52 -1.76,2.14 -0.35,0.25 -0.63,0.49 -1.07,0.46 -1.03,-0.06 -1.9,-0.45 -2.61,-1.25 -0.82,-0.98 -1.22,-2.16 -1.43,-3.47 0.13,-0.03 0.19,-0.04 0.2,-0.04 1.67,-0.06 3.1,-0.66 4.45,-1.54 0.94,-0.64 1.8,-1.42 2.62,-2.22 1.42,-1.35 2.32,-2.99 2.69,-4.89 0.06,-0.34 0.09,-0.68 0.09,-1 0,-0.24 -0.01,-0.46 -0.04,-0.7 -0.08,-0.55 -0.26,-1.08 -0.55,-1.57 -0.59,-0.98 -1.25,-1.86 -2.19,-2.48 -0.27,-0.15 -0.54,-0.33 -0.78,-0.51 -0.48,-0.36 -1,-0.58 -1.54,-0.67 -0.4,-0.08 -0.82,-0.11 -1.23,-0.1 -0.14,0 -0.27,0 -0.41,0.01 -0.98,0.08 -1.92,0.37 -2.8,0.83 -1.05,0.55 -1.93,1.28 -2.66,2.19 -1.23,1.49 -1.93,3.23 -2.45,5.08 -0.36,1.25 -0.59,2.5 -0.64,3.79 -0.04,0.63 -0.05,1.25 -0.06,1.87 z m 4.95,-0.4 c -0.01,-0.21 -0.01,-0.42 -0.01,-0.64 0,-0.39 0.02,-0.78 0.06,-1.18 0.05,-0.59 0.14,-1.19 0.26,-1.78 0.21,-1.12 0.56,-2.18 1.05,-3.16 0.59,-1.17 1.45,-2.12 2.65,-2.7 0.45,-0.23 0.9,-0.34 1.35,-0.34 0.24,0 0.46,0.03 0.69,0.09 0.66,0.17 1.24,0.55 1.74,1.13 0.25,0.32 0.42,0.64 0.5,0.99 0.05,0.18 0.07,0.36 0.06,0.54 0,0.18 -0.02,0.36 -0.06,0.55 -0.28,1.67 -0.99,3.18 -2.28,4.35 -0.62,0.58 -1.24,1.1 -1.95,1.63 -0.87,0.64 -1.82,1.14 -2.9,1.38 -0.31,0.09 -0.61,0.1 -1.01,0.15 -0.06,-0.37 -0.11,-0.66 -0.15,-1.01 z m 12.64,0.4 v 0.16 c 0,0.57 0.03,1.13 0.1,1.7 0.14,1.63 0.56,3.13 1.29,4.6 1.08,2.03 2.66,3.26 4.96,3.5 0.25,0.03 0.5,0.04 0.73,0.04 0.81,0 1.54,-0.15 2.21,-0.47 0.85,-0.4 1.61,-1.01 2.29,-1.81 0.89,-1 1.68,-2.09 2.3,-3.29 0.67,-1.26 1.26,-2.49 1.84,-3.78 0.21,-0.44 0.02,-0.69 -0.19,-0.83 -0.14,-0.08 -0.29,-0.14 -0.48,-0.15 -0.62,0.1 -0.89,0.52 -1.13,1.07 -0.46,1.17 -1.04,2.25 -1.75,3.33 -0.48,0.8 -1.05,1.52 -1.76,2.14 -0.35,0.25 -0.63,0.49 -1.07,0.46 -1.03,-0.06 -1.91,-0.45 -2.62,-1.25 -0.82,-0.98 -1.21,-2.16 -1.42,-3.47 0.12,-0.03 0.19,-0.04 0.2,-0.04 1.66,-0.06 3.1,-0.66 4.45,-1.54 0.94,-0.64 1.79,-1.42 2.61,-2.22 1.43,-1.35 2.33,-2.99 2.7,-4.89 0.06,-0.34 0.09,-0.68 0.09,-1 0,-0.24 -0.01,-0.46 -0.05,-0.7 -0.07,-0.55 -0.25,-1.08 -0.55,-1.57 -0.58,-0.98 -1.24,-1.86 -2.19,-2.48 -0.26,-0.15 -0.53,-0.33 -0.77,-0.51 -0.48,-0.36 -1,-0.58 -1.54,-0.67 -0.4,-0.08 -0.82,-0.11 -1.23,-0.1 -0.14,0 -0.27,0 -0.41,0.01 -0.99,0.08 -1.92,0.37 -2.81,0.83 -1.04,0.55 -1.93,1.28 -2.66,2.19 -1.22,1.49 -1.92,3.23 -2.45,5.08 -0.36,1.25 -0.58,2.5 -0.64,3.79 -0.03,0.63 -0.04,1.25 -0.05,1.87 z m 4.95,-0.4 c -0.01,-0.21 -0.01,-0.42 -0.01,-0.64 0,-0.39 0.02,-0.78 0.06,-1.18 0.05,-0.59 0.14,-1.19 0.25,-1.78 0.22,-1.12 0.57,-2.18 1.06,-3.16 0.58,-1.17 1.45,-2.12 2.65,-2.7 0.45,-0.23 0.9,-0.34 1.35,-0.34 0.23,0 0.46,0.03 0.68,0.09 0.66,0.17 1.25,0.55 1.74,1.13 0.26,0.32 0.43,0.64 0.51,0.99 0.04,0.18 0.07,0.36 0.05,0.54 0,0.18 -0.02,0.36 -0.05,0.55 -0.28,1.67 -0.99,3.18 -2.28,4.35 -0.62,0.58 -1.25,1.1 -1.96,1.63 -0.86,0.64 -1.81,1.14 -2.89,1.38 -0.32,0.09 -0.61,0.1 -1.01,0.15 -0.06,-0.37 -0.12,-0.66 -0.15,-1.01 z m 23.8,-15.82 c 0.03,0.84 0.01,1.7 0.07,2.51 0.03,0.8 0.07,1.58 0.11,2.37 0.03,0.42 -0.16,0.79 0.05,1.19 0.13,2.4 0.21,4.74 0.51,7.14 0.14,1.38 0.28,2.66 0.43,4.04 0.16,1.48 0.34,2.92 0.49,4.39 0.12,0.9 0.18,1.74 0.48,2.56 0.06,0.24 0.13,0.5 0.18,0.73 0.13,0.37 0.25,0.74 0.6,1.01 l 0.23,0.1 c 0.15,0.06 0.31,0.1 0.49,0.16 0.03,0.01 0.06,0.01 0.1,0.01 0.18,-0.01 0.37,-0.08 0.58,-0.21 0.25,-0.17 0.41,-0.35 0.48,-0.54 0.15,-0.42 0.23,-0.87 0.29,-1.3 0.05,-0.37 0.12,-0.76 0.17,-1.13 0.05,-0.3 0.07,-0.6 0.07,-0.92 v -0.23 c 0,-1.14 -0.08,-2.25 -0.22,-3.38 -0.19,-1.61 -0.46,-3.18 -0.7,-4.77 -0.18,-1.38 -0.4,-2.66 -0.55,-4.04 -0.09,-0.72 -0.15,-1.44 -0.2,-2.14 0,-0.06 0.02,-0.17 0.02,-0.35 0.45,0.53 0.81,0.94 1.21,1.38 1.7,1.79 2.83,3.86 3.69,6.14 0.85,2.21 1.36,4.49 1.79,6.83 0.18,1.02 0.43,2.04 0.67,3.07 0.15,0.57 0.46,1.07 0.92,1.54 0.4,0.08 0.65,-0.07 0.83,-0.29 0.09,-0.1 0.17,-0.24 0.25,-0.41 0.05,-0.33 0.11,-0.64 0.16,-0.99 0.07,-0.39 0.11,-0.8 0.11,-1.19 0,-0.15 0,-0.3 -0.02,-0.45 -0.03,-0.54 -0.1,-1.08 -0.21,-1.62 -0.23,-1.22 -0.49,-2.43 -0.8,-3.66 -0.4,-1.63 -0.84,-3.22 -1.64,-4.71 -0.64,-1.26 -1.37,-2.45 -2.22,-3.59 -0.92,-1.2 -1.9,-2.3 -2.92,-3.31 -0.13,-0.09 -0.19,-0.2 -0.28,-0.33 0.3,-0.14 0.55,-0.29 0.79,-0.43 2.07,-1.12 3.97,-2.46 5.56,-4.21 0.95,-1.04 1.57,-2.22 1.66,-3.65 0.05,-0.41 -0.03,-0.75 -0.17,-1.12 -0.27,-0.7 -0.79,-0.95 -1.49,-0.98 h -0.09 c -0.96,0 -1.88,0.23 -2.77,0.71 -1.31,0.71 -2.41,1.68 -3.4,2.79 -0.71,0.8 -1.34,1.62 -2.04,2.5 -0.04,-0.14 -0.05,-0.25 -0.05,-0.34 -0.09,-0.68 -0.17,-1.33 -0.26,-2 -0.09,-0.53 -0.49,-0.89 -0.99,-0.95 -0.32,-0.05 -0.68,-0.03 -1.05,0 -0.09,0 -0.16,0.04 -0.2,0.09 -0.23,0.25 -0.42,0.51 -0.59,0.77 -0.1,0.16 -0.15,0.36 -0.15,0.57 0,0.11 0.01,0.22 0.04,0.35 0.03,0.09 -0.02,0.2 -0.02,0.29 z m 3.4,3.86 c 0.06,-0.09 0.1,-0.2 0.19,-0.29 0.82,-1.17 1.66,-2.29 2.55,-3.42 0.94,-1.21 2.04,-2.25 3.43,-2.96 0.39,-0.21 0.85,-0.4 1.38,-0.57 0.32,-0.12 0.4,-0.02 0.44,0.32 v 0.12 c 0,0.35 -0.07,0.68 -0.21,0.99 -0.14,0.33 -0.34,0.66 -0.58,0.96 -0.53,0.64 -1.2,1.11 -1.84,1.64 -1.38,1.07 -2.9,1.92 -4.39,2.81 -0.31,0.14 -0.6,0.36 -0.9,0.5 -0.04,-0.03 -0.06,-0.06 -0.07,-0.1 z m 11.55,11.21 c -0.05,0.47 -0.07,0.94 -0.07,1.42 -0.01,0.61 0.03,1.23 0.11,1.85 0.14,1.08 0.44,2.12 0.9,3.14 1.02,2.34 2.66,3.97 5.27,4.5 0.52,0.09 1.03,0.22 1.56,0.22 1.22,0 2.41,-0.13 3.4,-0.99 0.08,-0.05 0.11,-0.05 0.17,-0.11 0.73,-0.53 1.44,-1.11 1.93,-1.91 0.46,-0.81 0.92,-1.59 1.36,-2.41 0.41,-0.9 0.68,-1.81 0.92,-2.72 0.27,-1.08 0.28,-2.17 0.31,-3.64 0.02,-0.1 0.02,-0.23 0.02,-0.35 0,-0.21 -0.02,-0.46 -0.05,-0.74 -0.06,-0.44 -0.11,-0.86 -0.19,-1.3 -0.15,-1.04 -0.27,-2.04 -0.51,-3.06 -0.4,-1.66 -0.91,-3.27 -2.02,-4.65 -0.49,-0.59 -1.05,-1.05 -1.67,-1.37 -0.54,-0.27 -1.15,-0.4 -1.81,-0.39 -0.1,-0.01 -0.19,-0.01 -0.29,0 -1.67,0.08 -3.15,0.65 -4.4,1.72 -1.9,1.63 -3.11,3.65 -3.91,5.98 -0.55,1.56 -0.89,3.15 -1.03,4.81 z m 4.94,1.63 c 0.05,-2.84 0.47,-5.08 1.27,-7.24 0.48,-1.3 1.13,-2.46 1.95,-3.52 0.29,-0.37 0.58,-0.61 0.88,-0.7 0.1,-0.03 0.2,-0.04 0.31,-0.04 0.24,0 0.49,0.06 0.79,0.17 1.04,0.41 1.7,1.2 2.25,2.11 0.62,0.98 0.94,2.11 1.17,3.24 0.19,0.8 0.29,1.6 0.44,2.4 0.26,1.12 0.22,2.25 0.1,3.42 -0.13,1.35 -0.3,2.67 -0.92,3.93 -0.4,0.77 -0.77,1.53 -1.57,1.93 -0.4,0.18 -0.78,0.36 -1.22,0.42 -0.16,0.01 -0.32,0.02 -0.47,0.02 -0.7,0 -1.36,-0.14 -1.93,-0.44 -0.69,-0.34 -1.29,-0.89 -1.78,-1.62 -0.46,-0.71 -0.78,-1.43 -0.97,-2.16 -0.19,-0.73 -0.29,-1.37 -0.3,-1.92 z m 11.88,1.14 c -0.04,0.29 -0.05,0.58 -0.05,0.86 0,0.44 0.04,0.89 0.1,1.33 0.09,0.8 0.3,1.55 0.79,2.19 0.46,0.64 1.05,1.12 1.84,1.17 0.14,0.01 0.27,0.02 0.41,0.02 0.7,0 1.39,-0.16 2.03,-0.5 0.98,-0.46 1.67,-1.22 2.35,-2.04 0.27,-0.38 0.56,-0.75 0.79,-1.18 0.35,-0.58 0.53,-1.18 0.88,-1.77 0.73,-1.4 1.49,-2.78 2.04,-4.25 0.14,-0.35 0.34,-0.6 0.61,-0.95 0.06,0.46 0.06,0.83 0.09,1.24 0.15,1.48 0.34,2.89 0.48,4.36 0.09,0.97 0.25,1.93 0.46,2.87 0.36,1.56 0.79,3.06 1.7,4.37 0.28,0.33 0.63,0.52 0.9,0.57 0.17,0.06 0.34,0.08 0.5,0.07 0.17,-0.04 0.34,-0.1 0.51,-0.16 0.28,-0.13 0.59,-0.24 0.83,-0.48 0.31,-0.31 0.47,-0.51 0.42,-0.94 -0.04,-0.16 -0.06,-0.27 -0.07,-0.33 -0.26,-0.73 -0.5,-1.43 -0.68,-2.16 -0.32,-1.3 -0.69,-2.6 -0.96,-3.91 -0.48,-2.21 -0.86,-4.37 -1.03,-6.65 -0.06,-0.64 -0.08,-1.28 -0.08,-1.92 0,-0.26 0,-0.52 0.01,-0.78 0.03,-0.9 0.07,-1.8 0.11,-2.71 0.03,-0.34 0.06,-0.7 0.08,-1.07 0.01,-0.09 0.01,-0.18 0.01,-0.26 0,-0.28 -0.03,-0.55 -0.09,-0.82 -0.03,-0.26 -0.13,-0.54 -0.33,-0.82 -0.19,-0.28 -0.48,-0.44 -0.86,-0.47 -0.44,-0.06 -0.74,0.06 -0.83,0.41 -0.24,0.71 -0.45,1.37 -0.69,2.14 -0.05,0 -0.12,0.04 -0.21,0.04 -1.56,0.26 -3.03,0.7 -4.5,1.41 -1.47,0.7 -2.7,1.62 -3.87,2.74 -0.96,0.92 -1.75,1.95 -2.34,3.11 -0.53,0.97 -0.78,2 -1.01,3.07 -0.16,0.73 -0.27,1.47 -0.34,2.2 z m 4.34,0.21 c 0,-0.06 0,-0.13 -0.01,-0.18 0.01,-0.45 0.04,-0.9 0.09,-1.35 0.06,-0.62 0.12,-1.21 0.26,-1.8 0.15,-0.67 0.41,-1.33 0.64,-1.97 0.15,-0.41 0.37,-0.78 0.55,-1.18 0.44,-0.89 1.18,-1.5 1.98,-2.11 0.99,-0.73 2.04,-1.34 3.15,-1.89 0.27,-0.15 0.55,-0.27 0.9,-0.33 0.09,0.41 0,0.72 -0.09,1.07 -0.31,1.07 -0.76,2.1 -1.2,3.14 -0.32,0.8 -0.77,1.6 -1.08,2.42 -0.37,1.08 -1.03,1.93 -1.56,2.92 -0.28,0.53 -0.49,1.04 -0.76,1.57 -0.47,0.89 -1.14,1.58 -2,2.09 -0.05,0.03 -0.11,0.06 -0.2,0.09 h -0.13 c -0.23,-0.27 -0.33,-0.64 -0.39,-0.99 -0.09,-0.49 -0.13,-1 -0.15,-1.5 z m 15.18,1.43 c -0.01,0.11 -0.01,0.22 -0.01,0.32 0,0.3 0.03,0.61 0.11,0.91 0.25,0.99 0.68,1.89 1.31,2.7 0.53,0.62 1.08,1.22 1.75,1.71 0.88,0.6 1.86,0.95 2.95,1.04 0.21,0.01 0.42,0.02 0.64,0.02 0.13,0.01 0.27,0.01 0.39,0 0.34,-0.01 0.67,-0.09 1.01,-0.24 1.61,-0.67 2.48,-1.86 2.92,-3.49 0.21,-0.69 0.36,-1.38 0.43,-2.09 0.04,-0.48 0.06,-0.97 0.06,-1.47 0,-0.23 0,-0.45 -0.01,-0.67 -0.08,-1.4 -0.43,-2.71 -1.1,-3.94 -0.49,-0.91 -1.04,-1.77 -1.66,-2.59 -0.76,-1.11 -1.49,-2.2 -2.11,-3.43 -0.18,-0.34 -0.34,-0.74 -0.3,-1.17 0.05,-0.89 0.46,-1.63 1.04,-2.31 0.21,-0.23 0.51,-0.3 0.78,-0.24 0.43,0.12 0.92,0.24 1.29,0.48 0.88,0.58 1.48,1.43 1.88,2.41 0.09,0.24 0.13,0.54 0.18,0.81 0.01,0.22 0.14,0.33 0.35,0.34 0.21,0.06 0.33,-0.06 0.42,-0.2 0.14,-0.19 0.18,-0.41 0.09,-0.62 -0.15,-0.35 -0.27,-0.63 -0.42,-0.98 -0.23,-0.5 -0.44,-1.03 -0.78,-1.49 -0.47,-0.64 -0.96,-1.21 -1.5,-1.74 -0.53,-0.5 -1.26,-0.87 -2.03,-1.05 -0.25,-0.05 -0.5,-0.09 -0.74,-0.09 -0.15,0 -0.31,0.02 -0.46,0.04 -0.41,0.05 -0.79,0.19 -1.14,0.4 -0.23,0.17 -0.49,0.32 -0.73,0.46 -1.2,0.82 -1.88,2.21 -1.97,3.64 -0.01,0.1 -0.01,0.21 -0.01,0.32 0,0.37 0.04,0.74 0.12,1.08 0.3,1.23 0.87,2.31 1.51,3.39 0.53,0.88 1.14,1.69 1.76,2.54 0.5,0.77 0.97,1.58 1.21,2.49 0.19,0.65 0.28,1.29 0.28,1.93 v 0.26 c -0.03,0.72 -0.16,1.43 -0.37,2.15 -0.15,0.53 -0.48,0.9 -0.85,1.25 -0.13,0.09 -0.27,0.15 -0.46,0.18 -0.42,0.03 -0.87,-0.02 -1.24,-0.29 -0.44,-0.35 -0.79,-0.68 -1.13,-1.14 -0.53,-0.76 -0.73,-1.61 -0.88,-2.5 -0.18,-1 -0.85,-1.65 -1.58,-2.33 -0.24,0.71 -0.54,1.31 -0.76,1.98 -0.12,0.42 -0.21,0.82 -0.24,1.22 z m 14.13,-20.1 c 0.23,0.13 0.44,0.28 0.68,0.37 0.28,0.09 0.58,0.16 0.85,0.16 0.1,0.01 0.22,0.01 0.33,0.01 0.17,0 0.33,-0.01 0.49,-0.02 0.27,-0.02 0.54,-0.04 0.8,-0.04 h 3.43 c 0.14,0 0.47,0.04 0.61,0.07 v 0.24 c -0.09,1.09 -0.37,5.79 -0.46,6.89 -0.05,1.14 -0.03,2.24 -0.06,3.41 0,1.27 0.06,9.63 0.32,10.9 0.33,1.66 0.72,3.25 1.54,4.74 0.55,0.98 1.22,1.67 2.3,2.02 0.35,0.13 0.7,0.22 1.05,0.27 0.14,0.03 0.29,0.05 0.45,0.03 0.21,0 0.42,-0.02 0.64,-0.06 0.43,-0.14 0.58,-0.4 0.37,-0.77 -0.26,-0.43 -0.49,-0.8 -0.72,-1.24 -0.13,-0.22 -0.2,-0.45 -0.29,-0.69 -0.06,-0.18 -0.09,-0.39 -0.15,-0.57 -0.39,-1.08 -0.63,-2.18 -0.84,-3.29 -0.08,-0.35 -0.15,-0.89 -0.2,-1.61 -0.11,-1.42 -0.23,-3.22 -0.28,-5.15 -0.09,-2.85 -0.17,-5.71 -0.17,-6.79 v -3.22 c 0,-0.49 0.04,-4.59 0.04,-5.09 0.17,-0.05 0.24,-0.05 0.33,-0.09 1.02,-0.05 1.98,-0.14 3.01,-0.2 0.28,-0.02 0.56,-0.03 0.83,-0.03 h 0.19 0.34 c 0.23,0 0.46,0 0.69,-0.01 0.33,0 0.66,0 0.97,-0.35 -0.14,-0.06 -0.19,-0.16 -0.28,-0.21 -0.31,-0.13 -0.6,-0.26 -0.9,-0.32 -1.35,-0.35 -2.69,-0.41 -4.07,-0.41 -0.37,-0.04 -0.74,-0.03 -1.11,-0.03 v -1.07 c 0,-0.94 0.17,-1.7 0.17,-2.61 0,-0.44 -0.03,-0.9 0.02,-1.34 0.09,-0.55 -0.18,-0.88 -0.55,-1.19 -0.21,-0.19 -0.44,-0.29 -0.67,-0.29 h -0.02 c -0.26,0.01 -0.52,0.05 -0.78,0.12 -0.49,0.13 -0.74,0.45 -0.74,0.98 v 0.14 0.2 c -0.06,0.46 -0.17,0.92 -0.22,1.38 -0.17,0.89 -0.3,1.57 -0.44,2.46 -0.06,0.44 -0.14,0.85 -0.19,1.29 -0.06,0.03 -0.32,0.05 -0.37,0.05 l -0.97,-0.03 c -0.33,0 -0.64,0.01 -0.97,0.03 -0.64,0.03 -1.29,0.07 -1.95,0.13 -0.8,0.09 -1.64,0.17 -2.46,0.26 -0.35,0.04 -0.55,0.23 -0.59,0.57 z m 17.26,16.84 v 0.16 c 0,0.57 0.03,1.13 0.1,1.7 0.14,1.63 0.56,3.13 1.29,4.6 1.08,2.03 2.66,3.26 4.96,3.5 0.25,0.03 0.5,0.04 0.73,0.04 0.81,0 1.54,-0.15 2.2,-0.47 0.86,-0.4 1.62,-1.01 2.29,-1.81 0.9,-1 1.69,-2.09 2.31,-3.29 0.67,-1.26 1.26,-2.49 1.84,-3.78 0.21,-0.44 0.02,-0.69 -0.19,-0.83 -0.14,-0.08 -0.29,-0.14 -0.48,-0.15 -0.62,0.1 -0.89,0.52 -1.13,1.07 -0.46,1.17 -1.04,2.25 -1.75,3.33 -0.48,0.8 -1.06,1.52 -1.76,2.14 -0.35,0.25 -0.63,0.49 -1.07,0.46 -1.03,-0.06 -1.91,-0.45 -2.62,-1.25 -0.82,-0.98 -1.21,-2.16 -1.42,-3.47 0.12,-0.03 0.19,-0.04 0.2,-0.04 1.66,-0.06 3.1,-0.66 4.45,-1.54 0.94,-0.64 1.79,-1.42 2.61,-2.22 1.43,-1.35 2.33,-2.99 2.7,-4.89 0.05,-0.34 0.09,-0.68 0.09,-1 0,-0.24 -0.01,-0.46 -0.05,-0.7 -0.08,-0.55 -0.25,-1.08 -0.55,-1.57 -0.58,-0.98 -1.24,-1.86 -2.19,-2.48 -0.27,-0.15 -0.54,-0.33 -0.77,-0.51 -0.48,-0.36 -1,-0.58 -1.54,-0.67 -0.4,-0.08 -0.82,-0.11 -1.24,-0.1 -0.13,0 -0.27,0 -0.4,0.01 -0.99,0.08 -1.92,0.37 -2.81,0.83 -1.04,0.55 -1.93,1.28 -2.66,2.19 -1.22,1.49 -1.92,3.23 -2.45,5.08 -0.36,1.25 -0.58,2.5 -0.64,3.79 -0.03,0.63 -0.04,1.25 -0.05,1.87 z m 4.95,-0.4 c -0.01,-0.21 -0.01,-0.42 -0.01,-0.64 0,-0.39 0.02,-0.78 0.05,-1.18 0.06,-0.59 0.15,-1.19 0.26,-1.78 0.22,-1.12 0.56,-2.18 1.06,-3.16 0.58,-1.17 1.45,-2.12 2.65,-2.7 0.45,-0.23 0.9,-0.34 1.35,-0.34 0.23,0 0.46,0.03 0.68,0.09 0.66,0.17 1.25,0.55 1.74,1.13 0.26,0.32 0.43,0.64 0.51,0.99 0.04,0.18 0.06,0.36 0.05,0.54 0,0.18 -0.02,0.36 -0.05,0.55 -0.28,1.67 -0.99,3.18 -2.28,4.35 -0.62,0.58 -1.25,1.1 -1.96,1.63 -0.86,0.64 -1.82,1.14 -2.89,1.38 -0.32,0.09 -0.61,0.1 -1.01,0.15 -0.06,-0.37 -0.12,-0.66 -0.15,-1.01 z m 12.6,-12.51 c -0.05,0.27 1.5,17.34 3.08,22.36 0.32,0.86 1.98,0.57 2.6,0.27 0.2,0 0.36,-0.05 0.49,-0.16 l 0.13,-0.13 c 0.26,-0.31 0.29,-0.7 0.33,-1.1 0.03,-0.23 0.07,-0.44 0.02,-0.65 -0.06,-0.27 -0.14,-0.56 -0.19,-0.83 -0.09,-0.6 -0.18,-1.26 -0.27,-1.88 -0.06,-0.62 -0.16,-1.27 -0.22,-1.91 -0.05,-0.28 -0.1,-0.55 -0.15,-0.85 -0.15,-1.02 -0.23,-2.03 -0.44,-3.02 -0.15,-0.8 -0.25,-1.56 -0.34,-2.36 0,-0.19 -0.01,-0.42 0.05,-0.56 0.32,-1.38 0.87,-2.66 1.6,-3.87 0.8,-1.29 1.75,-2.42 2.83,-3.47 0.24,-0.23 0.55,-0.42 0.86,-0.66 0.12,0.24 0.23,0.43 0.29,0.64 0.17,0.64 0.35,1.32 0.44,1.96 0.12,0.89 0.13,1.83 0.25,2.71 0.06,0.62 0.31,1.21 0.73,1.74 0.23,0.32 0.38,0.34 0.72,0.2 l 0.14,-1.32 c 0.05,-0.23 0.09,-0.54 0.09,-0.81 v -0.42 c 0,-0.5 -0.02,-0.98 -0.06,-1.45 -0.05,-0.62 -0.12,-1.24 -0.21,-1.87 -0.15,-1.02 -0.34,-1.98 -1.01,-2.8 -0.17,-0.23 -0.34,-0.43 -0.61,-0.47 -0.12,-0.01 -0.23,-0.01 -0.36,-0.01 -0.21,0 -0.41,0.01 -0.62,0.05 -0.31,0.05 -0.6,0.19 -0.88,0.4 -0.24,0.22 -0.47,0.37 -0.69,0.55 -1.04,0.82 -1.83,1.88 -2.63,2.92 -0.48,0.67 -0.87,1.34 -1.16,2.05 -0.06,0.14 -0.16,0.33 -0.28,0.57 -0.04,-0.15 -0.05,-0.17 -0.05,-0.22 -0.15,-0.8 -0.27,-1.6 -0.48,-2.4 -0.31,-1.16 -0.66,-2.3 -1.28,-3.29 -0.19,-0.27 -0.24,-0.53 -0.59,-0.53 -0.14,0 -0.32,-0.01 -0.5,0.05 v -0.02 c 0,0.01 -0.01,0.02 -0.02,0.02 -0.05,0 -0.08,0.01 -0.09,0.02 -0.4,0.14 -1.44,0.33 -1.52,0.55 z m 14.79,16.17 c -0.01,0.11 -0.01,0.22 -0.01,0.32 0,0.3 0.03,0.61 0.11,0.91 0.25,0.99 0.69,1.89 1.32,2.7 0.52,0.62 1.07,1.22 1.75,1.71 0.87,0.6 1.85,0.95 2.94,1.04 0.21,0.01 0.43,0.02 0.64,0.02 0.13,0.01 0.27,0.01 0.39,0 0.34,-0.01 0.68,-0.09 1.01,-0.24 1.61,-0.67 2.49,-1.86 2.92,-3.49 0.22,-0.69 0.36,-1.38 0.43,-2.09 0.05,-0.48 0.07,-0.97 0.07,-1.47 0,-0.23 0,-0.45 -0.01,-0.67 -0.08,-1.4 -0.44,-2.71 -1.1,-3.94 -0.5,-0.91 -1.05,-1.77 -1.67,-2.59 -0.76,-1.11 -1.49,-2.2 -2.11,-3.43 -0.18,-0.34 -0.33,-0.74 -0.3,-1.17 0.06,-0.89 0.46,-1.63 1.04,-2.31 0.22,-0.23 0.51,-0.3 0.78,-0.24 0.44,0.12 0.92,0.24 1.29,0.48 0.89,0.58 1.48,1.43 1.89,2.41 0.09,0.24 0.12,0.54 0.18,0.81 0.01,0.22 0.13,0.33 0.34,0.34 0.22,0.06 0.33,-0.06 0.42,-0.2 0.15,-0.19 0.18,-0.41 0.09,-0.62 -0.15,-0.35 -0.27,-0.63 -0.42,-0.98 -0.23,-0.5 -0.43,-1.03 -0.78,-1.49 -0.46,-0.64 -0.96,-1.21 -1.5,-1.74 -0.52,-0.5 -1.25,-0.87 -2.03,-1.05 -0.25,-0.05 -0.49,-0.09 -0.74,-0.09 -0.15,0 -0.3,0.02 -0.46,0.04 -0.4,0.05 -0.79,0.19 -1.13,0.4 -0.24,0.17 -0.5,0.32 -0.73,0.46 -1.21,0.82 -1.89,2.21 -1.98,3.64 -0.01,0.1 -0.01,0.21 -0.01,0.32 0,0.37 0.04,0.74 0.12,1.08 0.3,1.23 0.88,2.31 1.52,3.39 0.53,0.88 1.13,1.69 1.75,2.54 0.51,0.77 0.98,1.58 1.21,2.49 0.19,0.65 0.28,1.29 0.28,1.93 v 0.26 c -0.03,0.72 -0.15,1.43 -0.37,2.15 -0.14,0.53 -0.48,0.9 -0.85,1.25 -0.12,0.09 -0.27,0.15 -0.46,0.18 -0.42,0.03 -0.87,-0.02 -1.24,-0.29 -0.43,-0.35 -0.78,-0.68 -1.13,-1.14 -0.53,-0.76 -0.73,-1.61 -0.88,-2.5 -0.18,-1 -0.85,-1.65 -1.58,-2.33 -0.24,0.71 -0.54,1.31 -0.75,1.98 -0.13,0.42 -0.22,0.82 -0.25,1.22 z"
   stroke-linecap="round"
   id="path2" />
</g>
</g>
</g>
<g
   transform="matrix(1.9211538,0,0,1.9211538,661.23281,348.22969)"
   id="tagline-4852d62f-b0e7-40c2-bc43-60737c48e88f-logo"
   clip-path="url(#clipPath13)">
<g
   paint-order="stroke"
   id="g3">
		<g
   id="tagline-4852d62f-b0e7-40c2-bc43-60737c48e88f-logo-path-0">
<path
   style="opacity:1;fill:#6c2024;fill-rule:nonzero;stroke:none;stroke-width:0;stroke-linecap:butt;stroke-linejoin:miter;stroke-miterlimit:4;stroke-dasharray:none;stroke-dashoffset:0"
   paint-order="stroke"
   transform="translate(-96.119687,16.150975)"
   d="m 0.22,-2.37 c 0.26,0.15 0.45,-0.01 0.63,-0.16 0.42,-0.35 0.69,-0.73 0.83,-1.22 0.33,-0.91 0.6,-1.82 0.97,-2.71 1,-2.48 2.03,-4.95 3.06,-7.43 0.35,-0.98 0.23,-0.73 1.01,-0.79 0.27,0 0.45,-0.03 0.59,0 1.44,0.15 2.88,0.22 4.32,0.22 0.66,0 0.72,0.01 0.84,0.68 0,0.06 0.02,0.11 0.02,0.17 0.31,1.47 0.56,2.93 0.96,4.37 0.37,1.34 0.79,2.64 1.06,4.02 0.26,1.17 0.61,2.26 1.16,3.33 0.32,0.71 0.82,1.24 1.49,1.59 0.3,0.17 0.61,0.26 0.93,0.26 h 0.08 l 0.35,-0.02 c 0.23,0 0.47,0.02 0.71,0.04 0.25,0.03 0.48,-0.14 0.72,-0.26 0.3,-0.15 0.75,-0.41 0.75,-0.75 0.03,-0.33 -0.59,-2.71 -1.19,-5.02 -0.37,-1.35 -0.79,-2.86 -1.23,-4.51 -0.3,-1.31 -0.55,-2.64 -0.92,-3.93 -0.62,-2.12 -1.03,-4.25 -1.47,-6.42 -0.89,-3.22 -1.54,-5.59 -2.07,-7.22 -0.29,-0.96 -0.55,-1.77 -0.78,-2.44 -0.06,-0.28 -0.2,-0.43 -0.46,-0.45 -0.08,-0.01 -0.15,-0.01 -0.22,-0.01 -0.19,0 -0.38,0.02 -0.58,0.07 -0.22,0.08 -0.41,0.18 -0.56,0.28 -0.36,0.27 -0.69,0.57 -1.12,0.81 -0.24,0.14 -0.25,0.38 -0.37,0.61 l -0.6,1.61 c -0.73,1.79 -1.47,3.55 -2.23,5.36 -0.77,1.84 -1.54,3.6 -2.18,5.5 -1.17,3.34 -2.56,6.54 -3.64,9.87 -0.42,1.29 -0.71,2.6 -1.06,3.91 -0.05,0.24 -0.03,0.49 0.2,0.64 z m 6.43,-13.89 c -0.06,-0.24 0.03,-0.39 0.09,-0.57 0.53,-1.49 1.13,-2.97 1.84,-4.46 0.67,-1.49 1.38,-2.96 2.11,-4.54 0.18,0.82 0.26,1.57 0.35,2.28 0.27,2.2 0.56,4.4 0.83,6.6 0.03,0.26 0.02,0.41 -0.02,0.46 -0.05,0.06 -0.2,0.09 -0.48,0.09 -0.45,0 -0.9,0 -1.35,-0.01 H 9.58 c -0.3,0 -0.6,0 -0.89,0.01 -0.67,0 -1.33,0.08 -2.04,0.14 z m 14.8,4.02 c 0,1.66 0.1,3.24 0.16,4.91 0.05,1.76 0.15,3.56 0.53,5.31 0.16,0.71 0.41,1.31 0.85,1.86 0.26,0.08 0.53,0.12 0.78,0.12 0.13,0 0.24,-0.02 0.35,-0.03 0.64,-0.05 1.45,-0.38 2.07,-1.29 0.53,-0.85 1.01,-1.67 1.36,-2.62 0.05,-0.22 0.14,-0.4 -0.07,-0.55 -0.21,-0.16 -0.43,-0.18 -0.63,-0.03 -0.3,0.26 -0.55,0.54 -0.82,0.81 -0.13,0.15 -0.2,0.29 -0.32,0.44 0,-0.37 0,-0.72 0.01,-1.07 v -0.35 c 0,-0.23 0,-0.46 -0.01,-0.69 0,-0.73 -0.05,-1.49 -0.05,-2.19 -0.03,-0.95 -0.07,-1.87 -0.07,-2.81 0,-1.32 0.02,-2.61 0.05,-3.96 0.06,-1.4 0.13,-2.8 0.13,-4.21 0.06,-2.11 0.06,-4.21 0.03,-6.32 0,-1.44 -0.04,-2.84 -0.09,-4.28 -0.06,-1.53 -0.22,-2.99 -0.92,-4.37 -0.17,-0.31 -0.39,-0.56 -0.62,-0.74 -0.23,-0.17 -0.5,-0.24 -0.82,-0.24 h -0.08 c -0.28,0 -0.53,0.08 -0.67,0.32 -0.2,0.27 -0.34,0.56 -0.44,0.87 -0.33,0.84 -0.37,1.69 -0.41,2.58 -0.05,1.84 -0.15,3.59 -0.19,5.4 -0.02,0.84 -0.03,1.68 -0.03,2.53 v 0.63 1.05 c 0,0.71 0,1.41 -0.01,2.11 -0.04,2.31 -0.07,4.53 -0.07,6.81 z m 8.02,-14.58 c 0.23,0.13 0.45,0.28 0.68,0.37 0.28,0.09 0.59,0.16 0.86,0.16 0.1,0.01 0.21,0.01 0.32,0.01 0.17,0 0.33,-0.01 0.5,-0.02 0.27,-0.02 0.54,-0.04 0.79,-0.04 h 3.43 c 0.15,0 0.47,0.04 0.62,0.07 v 0.24 c -0.09,1.09 -0.37,5.79 -0.46,6.89 -0.06,1.14 -0.04,2.24 -0.07,3.41 0,1.27 0.07,9.63 0.33,10.9 0.32,1.66 0.71,3.25 1.53,4.74 0.55,0.98 1.23,1.67 2.31,2.02 0.34,0.13 0.69,0.22 1.04,0.27 0.15,0.03 0.29,0.05 0.45,0.03 0.21,0 0.43,-0.02 0.64,-0.06 C 42.88,2.03 43.02,1.77 42.81,1.4 42.55,0.97 42.33,0.6 42.09,0.16 41.97,-0.06 41.89,-0.29 41.8,-0.53 41.74,-0.71 41.71,-0.92 41.65,-1.1 41.26,-2.18 41.02,-3.28 40.81,-4.39 40.73,-4.74 40.67,-5.28 40.61,-6 c -0.1,-1.42 -0.23,-3.22 -0.28,-5.15 -0.09,-2.85 -0.17,-5.71 -0.17,-6.79 v -3.22 c 0,-0.49 0.05,-4.59 0.05,-5.09 0.16,-0.05 0.23,-0.05 0.32,-0.09 1.02,-0.05 1.99,-0.14 3.01,-0.2 0.28,-0.02 0.56,-0.03 0.83,-0.03 h 0.19 0.34 c 0.24,0 0.46,0 0.7,-0.01 0.32,0 0.66,0 0.96,-0.35 -0.13,-0.06 -0.19,-0.16 -0.28,-0.21 -0.3,-0.13 -0.59,-0.26 -0.9,-0.32 -1.35,-0.35 -2.68,-0.41 -4.06,-0.41 -0.37,-0.04 -0.74,-0.03 -1.11,-0.03 v -1.07 c 0,-0.94 0.16,-1.7 0.16,-2.61 0,-0.44 -0.03,-0.9 0.03,-1.34 0.09,-0.55 -0.18,-0.88 -0.55,-1.19 -0.22,-0.19 -0.44,-0.29 -0.68,-0.29 h -0.02 c -0.26,0.01 -0.52,0.05 -0.78,0.12 -0.49,0.13 -0.74,0.45 -0.74,0.98 v 0.14 0.2 c -0.05,0.46 -0.17,0.92 -0.22,1.38 -0.17,0.89 -0.29,1.57 -0.44,2.46 -0.06,0.44 -0.13,0.85 -0.19,1.29 -0.06,0.03 -0.31,0.05 -0.37,0.05 l -0.97,-0.03 c -0.32,0 -0.64,0.01 -0.96,0.03 -0.64,0.03 -1.29,0.07 -1.96,0.13 -0.79,0.09 -1.64,0.17 -2.46,0.26 -0.34,0.04 -0.55,0.23 -0.59,0.57 z m 17.3,18.46 c -0.03,0.29 -0.04,0.58 -0.04,0.86 0,0.44 0.03,0.89 0.1,1.33 0.09,0.8 0.29,1.55 0.79,2.19 0.46,0.64 1.04,1.12 1.84,1.17 0.13,0.01 0.27,0.02 0.4,0.02 0.71,0 1.4,-0.16 2.04,-0.5 0.97,-0.46 1.67,-1.22 2.34,-2.04 0.27,-0.38 0.56,-0.75 0.8,-1.18 0.35,-0.58 0.53,-1.18 0.88,-1.77 0.73,-1.4 1.49,-2.78 2.04,-4.25 0.14,-0.35 0.34,-0.6 0.61,-0.95 0.05,0.46 0.05,0.83 0.09,1.24 0.14,1.48 0.33,2.89 0.48,4.36 0.09,0.97 0.25,1.93 0.46,2.87 0.36,1.56 0.79,3.06 1.7,4.37 0.28,0.33 0.62,0.52 0.89,0.57 0.17,0.06 0.34,0.08 0.51,0.07 0.17,-0.04 0.34,-0.1 0.51,-0.16 0.28,-0.13 0.59,-0.24 0.83,-0.48 0.31,-0.31 0.47,-0.51 0.41,-0.94 -0.03,-0.16 -0.05,-0.27 -0.07,-0.33 -0.25,-0.73 -0.49,-1.43 -0.67,-2.16 -0.33,-1.3 -0.7,-2.6 -0.97,-3.91 -0.48,-2.21 -0.85,-4.37 -1.03,-6.65 -0.05,-0.64 -0.08,-1.28 -0.08,-1.92 0,-0.26 0,-0.52 0.01,-0.78 0.04,-0.9 0.07,-1.8 0.12,-2.71 0.03,-0.34 0.05,-0.7 0.07,-1.07 0.02,-0.09 0.02,-0.18 0.02,-0.26 0,-0.28 -0.04,-0.55 -0.09,-0.82 -0.04,-0.26 -0.14,-0.54 -0.33,-0.82 -0.19,-0.28 -0.48,-0.44 -0.86,-0.47 -0.44,-0.06 -0.75,0.06 -0.84,0.41 -0.23,0.71 -0.44,1.37 -0.68,2.14 -0.06,0 -0.12,0.04 -0.21,0.04 -1.56,0.26 -3.04,0.7 -4.51,1.41 -1.47,0.7 -2.69,1.62 -3.86,2.74 -0.97,0.92 -1.75,1.95 -2.35,3.11 -0.53,0.97 -0.77,2 -1.01,3.07 -0.16,0.73 -0.27,1.47 -0.34,2.2 z m 4.35,0.21 c 0,-0.06 0,-0.13 -0.01,-0.18 0.01,-0.45 0.03,-0.9 0.09,-1.35 0.06,-0.62 0.11,-1.21 0.26,-1.8 0.14,-0.67 0.4,-1.33 0.64,-1.97 0.14,-0.41 0.37,-0.78 0.55,-1.18 0.44,-0.89 1.18,-1.5 1.98,-2.11 0.98,-0.73 2.04,-1.34 3.15,-1.89 0.27,-0.15 0.55,-0.27 0.9,-0.33 0.09,0.41 0,0.72 -0.09,1.07 -0.32,1.07 -0.76,2.1 -1.2,3.14 -0.33,0.8 -0.78,1.6 -1.08,2.42 -0.37,1.08 -1.03,1.93 -1.56,2.92 -0.28,0.53 -0.5,1.04 -0.77,1.57 -0.47,0.89 -1.13,1.58 -1.99,2.09 -0.05,0.03 -0.12,0.06 -0.21,0.09 h -0.12 c -0.24,-0.27 -0.34,-0.64 -0.39,-0.99 -0.09,-0.49 -0.14,-1 -0.15,-1.5 z m 26.43,-17.61 c 0.55,2.19 1.06,4.3 1.59,6.44 l 1.85,7.45 c 0.46,1.93 0.9,3.83 1.76,5.64 0.25,0.55 0.52,1.05 0.96,1.51 0.15,0.19 0.34,0.32 0.57,0.4 0.42,0.12 0.84,0.19 1.24,0.19 0.56,0 1.11,-0.13 1.66,-0.37 0.32,-0.17 0.62,-0.37 0.77,-0.61 0.4,-0.73 0.79,-1.45 0.92,-2.27 0.18,-1.36 0.6,-2.58 1.1,-3.84 0.4,-1.04 0.75,-2.09 1.15,-3.13 l 1.17,-3.34 c 0.06,0 0.06,-0.02 0.09,-0.02 0.06,0.18 0.14,0.37 0.19,0.55 0.24,0.99 0.47,1.93 0.78,2.87 0.46,1.48 0.96,2.95 1.42,4.42 0.62,1.84 1.14,3.64 1.76,5.48 0.46,1.47 1.15,2.76 2.17,3.93 0.23,0.24 0.48,0.43 0.75,0.39 0.4,-0.03 0.76,-0.2 1.16,-0.32 0.02,0 0.03,-0.01 0.03,-0.03 0.19,-0.32 0.42,-0.66 0.51,-1.01 0.18,-0.82 0.41,-1.61 0.64,-2.41 0.62,-2.08 1.17,-4.16 1.75,-6.23 0.13,-0.41 0.17,-0.8 0.32,-1.21 0.53,-1.52 1.03,-3.02 1.56,-4.54 0.26,-0.71 0.42,-1.37 0.65,-2.05 0.36,-1.13 0.75,-2.22 1.12,-3.36 0.26,-0.84 0.47,-1.68 0.68,-2.53 0.32,-1.39 0.77,-2.7 0.99,-4.14 0,-0.1 0.01,-0.15 0.04,-0.19 0.27,-0.39 0.22,-0.77 0.16,-1.21 -0.06,-0.73 -0.48,-1.17 -1.03,-1.52 -0.44,-0.28 -0.9,-0.16 -1.27,0.27 -0.42,0.5 -0.62,1.06 -0.8,1.64 -0.53,1.62 -1.02,3.23 -1.55,4.81 -0.33,0.98 -0.64,1.95 -0.94,2.94 -0.59,1.93 -1.13,3.82 -1.74,5.75 -0.35,1.17 -0.77,2.3 -1.14,3.47 -0.58,1.84 -1.12,3.61 -1.67,5.45 -0.13,0.35 -0.18,0.65 -0.31,1.09 -0.09,-0.19 -0.1,-0.27 -0.13,-0.33 -0.62,-1.93 -1.2,-3.82 -1.82,-5.75 -0.41,-1.22 -0.89,-2.41 -1.23,-3.7 -0.35,-1.47 -0.77,-2.88 -1.21,-4.35 -0.05,-0.24 -0.38,-0.58 -0.68,-0.82 -0.17,-0.16 -0.37,-0.31 -0.59,-0.46 -0.41,-0.28 -0.88,-0.06 -1.12,0.29 -0.4,0.5 -0.77,1 -0.99,1.62 -0.3,0.85 -0.64,1.66 -0.99,2.48 -0.23,0.62 -0.55,1.14 -0.78,1.72 -0.62,1.52 -1.19,3 -1.81,4.49 -0.08,0.21 -0.22,0.39 -0.37,0.66 -0.12,-0.28 -0.2,-0.49 -0.24,-0.64 -0.79,-2.48 -1.57,-4.9 -2.39,-7.39 -0.71,-2.11 -1.4,-4.21 -2.13,-6.32 -0.35,-0.89 -0.64,-1.77 -1.08,-2.59 -0.49,-1 -1.26,-1.71 -2.28,-2.13 -0.44,-0.14 -1.01,-0.02 -1.13,0.33 -0.16,0.46 -0.24,0.93 -0.24,1.4 0,0.37 0.05,0.75 0.15,1.13 z m 32.21,18.97 v 0.09 c 0.01,0.31 0.02,0.62 0.05,0.95 0.09,1.2 0.63,2.23 1.34,3.22 0.4,0.62 0.92,1.06 1.54,1.43 0.14,0.09 0.36,0.16 0.5,0.25 0.53,0.34 1.07,0.59 1.63,0.72 0.46,0.1 0.93,0.14 1.42,0.14 0.12,0 0.23,0 0.35,-0.01 0.85,-0.03 1.59,-0.24 2.35,-0.51 1.17,-0.42 2.23,-1.05 3.18,-1.88 1.4,-1.26 2.22,-2.79 2.66,-4.63 0.19,-0.85 0.38,-1.68 0.53,-2.5 0.26,-1.32 0.44,-2.62 0.65,-3.93 0.06,-0.5 0.12,-0.98 0.18,-1.48 0.12,-0.67 0.24,-1.3 0.33,-1.97 0.23,-1.66 0.45,-3.35 0.57,-5.04 0.15,-2.06 0.35,-4.07 0.53,-6.12 0.02,-0.24 0.03,-0.47 0.03,-0.7 0,-0.11 0,-0.23 -0.01,-0.34 -0.01,-0.34 -0.1,-0.67 -0.25,-1.01 -0.17,-0.36 -0.37,-0.66 -0.81,-0.81 -0.4,-0.12 -0.73,-0.01 -1.1,0.08 -0.26,0.06 -0.4,0.15 -0.52,0.38 -0.59,1.17 -1.06,2.35 -1.36,3.64 -0.09,0.46 -0.21,0.92 -0.42,1.36 -0.82,1.58 -1.53,3.18 -2.14,4.78 -0.49,1.35 -0.9,2.66 -1.43,4 -0.3,0.82 -0.67,1.62 -1.08,2.42 -0.21,0.44 -0.56,0.7 -0.96,1.05 -0.18,-0.21 -0.36,-0.37 -0.51,-0.55 -0.36,-0.53 -0.56,-1.14 -0.71,-1.78 -0.44,-2.04 -0.49,-4.02 -0.53,-6.08 -0.04,-1.31 -0.02,-2.64 -0.25,-3.95 -0.01,-0.07 -0.03,-0.16 -0.03,-0.28 0.02,-0.06 0.02,-0.13 0.02,-0.18 0,-0.2 -0.05,-0.38 -0.13,-0.54 -0.1,-0.21 -0.25,-0.42 -0.44,-0.62 -0.25,-0.23 -0.5,-0.28 -0.85,-0.25 -0.27,0 -0.38,0.23 -0.44,0.46 -0.01,0.05 -0.05,0.12 -0.11,0.21 -0.28,0.58 -0.49,1.15 -0.62,1.77 -0.22,1.08 -0.37,2.18 -0.46,3.29 -0.05,0.75 -0.1,1.5 -0.16,2.24 -0.02,0.27 -0.03,0.54 -0.03,0.82 0,0.47 0.03,0.94 0.09,1.42 0.1,0.8 0.16,1.55 0.39,2.28 0.28,0.91 0.66,1.73 1.3,2.44 0.37,0.39 0.76,0.71 1.2,0.94 0.33,0.17 0.7,0.25 1.12,0.25 0.13,0 0.27,-0.01 0.42,-0.02 0.14,-0.04 0.36,-0.01 0.5,-0.07 0.73,-0.12 1.43,-0.36 1.96,-0.94 0.62,-0.69 1.1,-1.45 1.4,-2.28 0.45,-1.16 0.92,-2.34 1.38,-3.54 l 0.27,-0.62 h 0.11 c -0.03,0.12 -0.03,0.25 -0.07,0.39 l -0.26,1.59 c -0.29,1.56 -0.52,3.04 -0.79,4.57 -0.24,1.17 -0.46,2.33 -0.73,3.5 -0.14,0.53 -0.23,1.07 -0.46,1.56 -0.45,1.06 -1.17,1.89 -2.15,2.51 -0.41,0.26 -0.86,0.42 -1.36,0.49 -0.19,0.04 -0.38,0.05 -0.57,0.05 -0.28,0 -0.56,-0.04 -0.84,-0.09 -0.93,-0.23 -1.76,-0.8 -2.26,-1.71 -0.44,-0.81 -0.81,-1.64 -0.81,-2.63 -0.01,-0.37 -0.18,-0.66 -0.48,-0.9 -0.15,-0.1 -0.31,-0.12 -0.48,-0.04 -0.8,0.37 -1.15,1.1 -1.29,1.86 -0.07,0.28 -0.1,0.56 -0.1,0.85 z m 29.67,-15.99 c 0,1.63 0.01,3.22 0.06,4.84 0.06,1.84 0.15,3.67 0.28,5.47 0.09,1.3 0.18,2.52 0.4,3.78 0.14,0.91 0.48,1.79 0.66,2.68 0.35,1.57 1.03,2.93 1.98,4.19 0.52,0.67 1.22,1.12 2.02,1.47 0.57,0.24 1.13,0.36 1.68,0.36 0.22,0 0.43,-0.02 0.64,-0.05 0.76,-0.14 1.49,-0.38 2.22,-0.72 1.34,-0.64 2.28,-1.72 2.89,-3.01 0.73,-1.53 1.1,-3.1 1.34,-4.77 0.18,-1.38 0.27,-2.78 0.36,-4.18 0.05,-0.89 0.04,-1.78 0.08,-2.67 0.03,-1.66 0.08,-3.3 0.11,-4.96 0,-1.34 -0.03,-2.61 -0.07,-3.92 -0.01,-0.34 -0.01,-0.67 -0.01,-1.01 v -1.02 c 0,-0.35 0,-0.7 -0.01,-1.05 -0.01,-0.88 -0.07,-1.83 -0.1,-2.71 -0.04,-0.31 0.01,-0.55 0.04,-0.9 -0.08,-0.01 -0.14,-0.01 -0.22,-0.01 -0.3,0.01 -0.53,0.05 -0.7,0.15 -0.21,0.13 -0.37,0.34 -0.49,0.64 -0.32,0.73 -0.41,1.53 -0.44,2.33 -0.03,1 -0.07,2.01 -0.12,3.03 -0.06,1.22 -0.13,2.46 -0.18,3.68 -0.06,1.48 -0.04,2.9 -0.09,4.37 -0.06,1.84 -0.11,3.68 -0.15,5.55 -0.03,1.71 -0.18,3.38 -0.62,5.08 -0.23,0.95 -0.6,1.83 -1.19,2.62 -0.19,0.24 -0.34,0.39 -0.69,0.39 -0.95,-0.04 -1.76,-0.37 -2.25,-1.19 -0.35,-0.53 -0.64,-1.09 -0.79,-1.71 -0.34,-1.44 -0.66,-2.85 -0.87,-4.32 -0.18,-1.32 -0.19,-2.64 -0.25,-3.96 -0.1,-1.31 -0.21,-2.6 -0.3,-3.95 -0.06,-1.02 -0.13,-1.99 -0.18,-3.01 -0.1,-1.72 -0.08,-3.41 -0.48,-5.11 -0.26,-0.99 -0.45,-1.97 -0.95,-2.88 -0.08,-0.14 -0.11,-0.26 -0.17,-0.41 -0.23,-0.8 -0.74,-1.18 -1.56,-1.27 -0.09,-0.01 -0.18,-0.01 -0.27,-0.01 -0.48,-0.01 -0.84,0.12 -1.09,0.4 -0.29,0.33 -0.46,0.71 -0.5,1.14 -0.06,0.41 -0.05,0.88 -0.05,1.32 0,1.79 -0.01,3.53 0.03,5.31 z m 15.63,-2.04 v 0.24 c 0,0.75 0.13,1.46 0.39,2.11 0.36,0.95 1.01,1.68 1.72,2.39 0.67,0.64 1.51,1.09 2.33,1.49 1.16,0.59 2.19,1.34 3.17,2.19 0.44,0.33 0.82,0.73 1.19,1.17 0.71,0.84 1.1,1.82 1.51,2.81 0.3,0.8 0.5,1.61 0.63,2.42 0.09,0.59 0.13,1.18 0.12,1.8 0,0.24 -0.01,0.48 -0.02,0.72 -0.06,0.99 -0.28,1.94 -0.99,2.67 -0.27,0.27 -0.55,0.55 -0.9,0.79 -0.73,0.46 -1.48,0.77 -2.26,0.94 -0.28,0.06 -0.57,0.09 -0.85,0.09 -0.52,0 -1.05,-0.09 -1.6,-0.28 -0.47,-0.13 -0.82,-0.37 -1.08,-0.71 -0.8,-1.04 -1.28,-2.16 -1.32,-3.48 -0.03,-0.79 -0.02,-1.55 -0.02,-2.31 0,-0.26 -0.03,-0.42 -0.25,-0.54 -0.14,-0.03 -0.31,-0.03 -0.48,0 -0.28,0.08 -0.61,0.17 -0.79,0.52 -0.05,0.09 -0.09,0.15 -0.09,0.2 -0.05,0.67 -0.15,1.35 -0.15,2.02 0.01,0.8 0.15,1.57 0.45,2.33 0.31,0.88 0.6,1.75 1.22,2.48 0.37,0.44 0.83,0.85 1.27,1.22 0.82,0.68 1.7,1.14 2.62,1.37 0.47,0.13 0.95,0.18 1.46,0.18 0.48,0 0.98,-0.05 1.5,-0.17 1.57,-0.37 2.88,-1.09 4.1,-2.07 0.17,-0.15 0.29,-0.29 0.37,-0.42 0.98,-1.29 1.65,-2.62 1.96,-4.2 0.17,-0.89 0.26,-1.78 0.26,-2.68 0,-0.59 -0.03,-1.17 -0.11,-1.77 -0.12,-0.97 -0.46,-1.91 -0.73,-2.85 -0.31,-1.07 -0.87,-2.04 -1.42,-2.99 -0.5,-0.8 -1.05,-1.49 -1.67,-2.2 -0.82,-0.93 -1.76,-1.72 -2.83,-2.35 -0.7,-0.43 -1.42,-0.76 -2.13,-1.2 -0.44,-0.23 -0.84,-0.5 -0.99,-1.03 -0.05,-0.17 -0.08,-0.34 -0.08,-0.51 0,-0.51 0.28,-0.98 0.83,-1.42 0.51,-0.4 1.05,-0.64 1.63,-0.77 0.31,-0.05 0.62,-0.09 0.95,-0.1 0.28,0 0.57,0.03 0.87,0.08 0.81,0.14 1.53,0.5 2.15,1.02 0.4,0.33 0.73,0.62 1.17,0.89 0.13,0.1 0.26,0.15 0.4,0.15 0.18,0 0.36,-0.08 0.54,-0.24 0.28,-0.24 0.36,-0.46 0.14,-0.83 -0.31,-0.51 -0.64,-0.99 -0.98,-1.52 -0.19,-0.23 -0.44,-0.51 -0.66,-0.75 -0.3,-0.35 -0.52,-0.68 -0.87,-1.03 -0.85,-0.87 -1.84,-1.47 -3.01,-1.78 -0.5,-0.14 -0.98,-0.2 -1.47,-0.25 -0.22,-0.03 -0.42,-0.04 -0.63,-0.04 -0.64,0 -1.26,0.1 -1.88,0.32 -1.65,0.57 -2.93,1.56 -3.81,2.98 -0.56,0.9 -0.82,1.86 -0.88,2.9 z m 16.71,22.45 c 0.26,0.15 0.45,-0.01 0.63,-0.16 0.41,-0.35 0.68,-0.73 0.83,-1.22 0.33,-0.91 0.6,-1.82 0.97,-2.71 1,-2.48 2.03,-4.95 3.05,-7.43 0.36,-0.98 0.24,-0.73 1.01,-0.79 0.27,0 0.45,-0.03 0.6,0 1.43,0.15 2.87,0.22 4.32,0.22 0.65,0 0.72,0.01 0.83,0.68 0,0.06 0.02,0.11 0.02,0.17 0.32,1.47 0.57,2.93 0.97,4.37 0.37,1.34 0.79,2.64 1.06,4.02 0.25,1.17 0.6,2.26 1.15,3.33 0.33,0.71 0.82,1.24 1.5,1.59 0.3,0.17 0.6,0.26 0.93,0.26 h 0.08 l 0.34,-0.02 c 0.24,0 0.48,0.02 0.71,0.04 0.26,0.03 0.48,-0.14 0.72,-0.26 0.3,-0.15 0.75,-0.41 0.75,-0.75 0.04,-0.33 -0.58,-2.71 -1.19,-5.02 -0.37,-1.35 -0.78,-2.86 -1.22,-4.51 -0.3,-1.31 -0.55,-2.64 -0.92,-3.93 -0.62,-2.12 -1.04,-4.25 -1.47,-6.42 -0.89,-3.22 -1.54,-5.59 -2.07,-7.22 -0.29,-0.96 -0.55,-1.77 -0.79,-2.44 -0.05,-0.28 -0.2,-0.43 -0.46,-0.45 -0.08,-0.01 -0.14,-0.01 -0.21,-0.01 -0.19,0 -0.38,0.02 -0.58,0.07 -0.23,0.08 -0.42,0.18 -0.57,0.28 -0.35,0.27 -0.68,0.57 -1.12,0.81 -0.23,0.14 -0.25,0.38 -0.37,0.61 l -0.59,1.61 c -0.73,1.79 -1.48,3.55 -2.24,5.36 -0.76,1.84 -1.54,3.6 -2.18,5.5 -1.17,3.34 -2.56,6.54 -3.64,9.87 -0.41,1.29 -0.7,2.6 -1.05,3.91 -0.06,0.24 -0.04,0.49 0.2,0.64 z m 6.42,-13.89 c -0.05,-0.24 0.04,-0.39 0.09,-0.57 0.53,-1.49 1.14,-2.97 1.85,-4.46 0.67,-1.49 1.38,-2.96 2.11,-4.54 0.18,0.82 0.26,1.57 0.34,2.28 0.27,2.2 0.57,4.4 0.84,6.6 0.03,0.26 0.02,0.41 -0.03,0.46 -0.04,0.06 -0.2,0.09 -0.48,0.09 -0.45,0 -0.9,0 -1.35,-0.01 h -0.43 c -0.31,0 -0.6,0 -0.89,0.01 -0.68,0 -1.34,0.08 -2.05,0.14 z"
   stroke-linecap="round"
   id="path3" />
</g>
</g>
</g>
<g
   transform="matrix(1.1022417,0,0,1.1022417,134.57258,213.87341)"
   id="logo-logo"
   clip-path="url(#clipPath12)">
<g
   paint-order="stroke"
   id="g10">
		<g
   transform="matrix(0.1643,0,0,-0.1643,68.178,40.385418)"
   id="g4">
<path
   style="opacity:1;fill:#00adef;fill-rule:nonzero;stroke:none;stroke-width:1;stroke-linecap:butt;stroke-linejoin:miter;stroke-miterlimit:4;stroke-dasharray:none;stroke-dashoffset:0"
   paint-order="stroke"
   transform="translate(-1742.0539,-1258.5738)"
   d="m 1830.8,1220.33 -0.23,4.87 c -0.22,3.24 -0.34,6.53 -0.71,9.58 l -1.56,8.69 c -1,5.76 -2.6,11.24 -3.83,16.73 l -4.16,16.03 c -1.48,5.43 -2.52,10.77 -4.02,15.99 -1.13,5.27 -2.77,10.44 -4.14,15.64 v 0.08 l -3.01,9.6 c -1.21,3.24 -2.13,6.66 -3.5,9.89 -1.28,3.26 -2.57,6.59 -4.31,9.84 l -1.21,2.51 c -0.82,1.24 -0.96,1.61 -1.47,2.47 -0.92,1.5 -1.58,2.89 -2.65,4.5 -2.39,3.29 -4.98,6.69 -7.91,9.53 -1.41,1.6 -3.03,2.9 -4.75,4.19 l -2.6,1.99 -0.64,0.48 -0.04,0.03 c -0.39,0.15 0.82,-0.27 -0.9,0.34 l -0.08,0.03 -0.12,0.09 -0.29,0.19 -1.09,0.7 -8.73,5.63 c -3.83,1.66 -8.13,3.23 -12.46,4.61 l -1.66,0.49 -0.82,0.26 -0.1,0.03 -0.04,0.02 c -2.46,0.08 -0.7,0.03 -1.27,0.05 l -0.16,0.02 -0.31,0.08 -2.5,0.57 -5,0.97 c -1.66,0.34 -3.34,0.61 -5,0.84 -1.58,0.29 -3.36,0.48 -5.43,0.5 -3.94,-0.03 -7.95,0.1 -11.93,-0.15 l -2.99,-0.18 -0.74,-0.04 -0.37,-0.03 h -0.2 l -0.1,-0.01 -1.13,-0.17 -1.23,-0.18 c -1.66,-0.18 -3.28,-0.54 -4.94,-0.83 -6.58,-1.07 -13.07,-2.75 -19.51,-4.54 l -5.98,-1.81 c -1.56,-0.58 -3.12,-1.21 -4.67,-1.87 -3.12,-1.3 -6.23,-2.67 -9.29,-4.11 l -16.25,-7.55 2.09,-10.49 c 2.83,-14.16 6.46,-28.32 8.65,-42.48 2.19,-14.16 2.79,-28.31 2.07,-42.48 -0.57,-14.16 -2.52,-28.32 -5.24,-42.48 -2.57,-14.16 -5.6,-28.32 -7.42,-42.48 l -1.66,-12.79 16.86,-7.03 c 2.58,-1.07 5.21,-2.01 7.83,-2.96 l 3.96,-1.41 1.98,-0.67 0.99,-0.35 0.49,-0.16 0.26,-0.09 0.13,-0.04 0.06,-0.01 0.7,-0.16 15.28,-4.18 7.63,-2.08 3.83,-1.03 1.92,-0.53 0.46,-0.13 0.26,-0.06 0.12,-0.03 0.05,-0.01 2.29,-0.35 0.98,-0.18 c 5.27,-0.93 10.21,-1.85 15.76,-2.66 l 9.88,-0.54 4.98,-0.2 2.48,-0.1 1.25,-0.01 3.61,0.36 7.84,0.98 c 1.5,0.26 2.2,0.13 4.33,0.71 l 5.82,1.66 5.78,1.85 2.88,0.97 1.4,0.5 0.37,0.11 1.98,0.9 0.44,0.22 c 1.18,0.58 2.35,1.19 3.48,1.83 0.7,0.41 0.9,0.43 2.03,1.16 l 3.09,1.99 c 2.03,1.36 4.06,2.8 5.96,4.27 l 4.39,4.02 c 3.03,2.68 5.16,5.72 7.56,8.65 l 0.86,1.11 1.29,1.73 0.27,0.43 1.02,1.7 2.03,3.4 c 1.64,2.79 3.55,7.03 5.09,10.51 2.47,6.58 4.01,12.79 4.83,19.03 l 0.39,2.33 0.04,0.29 0.27,1.04 v 0.07 0.12 0.51 l 0.02,1.01 0.08,4.05 c 0.02,1.34 0,2.71 -0.04,4.07"
   stroke-linecap="round"
   id="path4" />
</g>
		<g
   transform="matrix(0.1643,0,0,-0.1643,-4.8116,66.154818)"
   id="g5">
<path
   style="opacity:1;fill:#fff200;fill-rule:nonzero;stroke:none;stroke-width:1;stroke-linecap:butt;stroke-linejoin:miter;stroke-miterlimit:4;stroke-dasharray:none;stroke-dashoffset:0"
   paint-order="stroke"
   transform="translate(-1297.9109,-1101.7665)"
   d="m 1537.4,938.59 -0.11,3.871 -0.24,3.277 -0.47,6.543 -1.05,13.11 -2.31,26.199 c -1.5,17.47 -3.3,34.93 -4.59,52.4 -1.36,17.47 -2.71,34.95 -3.51,52.41 -1.68,34.94 -1.88,69.88 -1.14,104.82 0.08,8.73 0.57,17.47 0.86,26.2 l 1.08,26.21 c 1.05,17.47 1.97,34.94 3.38,52.4 l 1.07,13.38 -15.64,1.19 -53.05,4.02 c -17.7,1.3 -35.39,2.88 -53.07,3.92 -17.69,1.09 -35.37,2.23 -53.04,2.83 -17.69,0.78 -35.37,1.43 -53.07,1.95 -35.36,1.16 -70.73,2.31 -106.09,3.09 -17.7,0.48 -35.37,0.94 -53.07,1.02 -17.69,0.29 -35.36,0.05 -53.06,0.05 l -31.98,-0.02 0.56,-31.43 c 0.3,-17.48 0.46,-34.96 0.98,-52.44 0.57,-17.49 0.88,-34.97 1.77,-52.46 l 2.31,-52.44 c 0.78,-17.48 2.04,-34.98 3.04,-52.46 0.95,-17.48 2.29,-34.97 3.68,-52.46 1.25,-17.48 2.75,-34.96 4.47,-52.45 0.86,-8.738 1.54,-17.48 2.54,-26.23 l 1.42,-13.102 0.72,-6.566 0.41,-4.121 0.62,-3.242 c 0.65,-4.098 1.95,-9 3.31,-13.75 1.57,-4.61 3.24,-9.079 5.55,-13.418 4.44,-8.629 11.37,-16.25 19.61,-20.86 l 0.72,-0.41 1.03,-0.191 c 16.03,-2.77 32.05,-4.84 48.06,-6.93 16.03,-1.68 32.05,-3.852 48.07,-5.121 16.01,-1.367 32.04,-3.047 48.05,-4.098 16.02,-1.23 32.05,-2.152 48.07,-3.051 32.03,-1.781 64.07,-2.832 96.1,-3.609 16.04,-0.242 32.06,-0.59 48.07,-0.652 16.04,-0.059 32.05,0.16 48.07,0.722 l 9.08,0.321 6.19,4.718 c 11.45,8.692 19.28,21.641 22.75,33.481 3.79,11.949 4.26,23.16 3.85,33.379"
   stroke-linecap="round"
   id="path5" />
</g>
		<g
   transform="matrix(0.1643,0,0,-0.1643,-8.1961,127.48552)"
   id="g6">
<path
   style="opacity:1;fill:#ed1c24;fill-rule:nonzero;stroke:none;stroke-width:1;stroke-linecap:butt;stroke-linejoin:miter;stroke-miterlimit:4;stroke-dasharray:none;stroke-dashoffset:0"
   paint-order="stroke"
   transform="translate(-1277.3161,-728.56831)"
   d="m 1747.38,731.77 -0.04,0.3 -0.09,0.578 c -0.14,0.801 -0.18,1.43 -0.41,2.364 -1.21,4.629 -3.23,7.5 -5.47,10.097 -4.59,5.063 -9.83,7.911 -14.63,10.219 -9.73,4.512 -18.52,6.07 -25.51,7.32 -7.05,1.133 -12.52,1.391 -16.19,1.524 -3.67,0.039 -5.57,0.058 -5.57,0.058 0,0 -7.4,0.04 -21.29,0.122 -13.9,0.136 -34.27,0.589 -60.23,1.91 -25.92,1.308 -57.42,3.886 -93.54,7.617 -18.06,1.781 -37.28,3.691 -57.53,5.723 -20.28,1.648 -41.59,3.808 -63.81,5.136 -44.46,2.813 -92.63,3.711 -143.57,2.332 -50.95,-1.218 -104.67,-5.898 -160.25,-10.16 -55.57,-4.301 -113,-7.359 -171.352,-6.738 l -21.921,0.199 -5.711,0.051 -5.539,-0.051 c -4.09,-0.16 -8.118,-0.512 -12.012,-0.902 -7.891,-0.879 -15.813,-2.457 -23.692,-5.18 -7.839,-2.73 -15.82,-6.5 -23.078,-13.75 -3.523,-3.75 -6.992,-8.75 -8.25,-15.211 l -0.34,-2.437 -0.128,-1.231 c -0.071,-0.219 0.07,-3.012 0.039,-2.129 l 0.168,-2.859 c 0.339,-1.891 0.828,-3.82 1.453,-5.703 0.617,-1.68 1.269,-2.809 1.965,-4.219 5.984,-10.211 14.253,-15.391 22.019,-19.469 15.789,-7.992 32.227,-11.25 48.817,-12.359 29.652,-2 59.281,-3.973 88.808,-5.942 14.77,-0.761 29.504,-1.539 44.194,-2.32 14.69,-0.531 29.33,-1.101 43.92,-1.648 58.35,-1.793 115.77,-3.434 171.36,-4.532 55.58,-1.339 109.3,-1.339 160.24,-0.332 50.94,1.063 99.11,2.364 143.56,5.981 44.47,3.492 85.23,8.062 121.37,11.699 9.12,0.922 17.93,1.813 26.44,2.652 3.99,0.469 8.87,1.098 13.21,1.942 4.29,0.859 8.47,1.867 12.51,3.117 8.11,2.383 15.73,5.57 22.5,9.832 6.74,4.141 13.11,9.719 16.29,17.668 0.61,2.09 1.21,4.121 1.23,6.27 l 0.1,1.582 c 0.02,-0.332 -0.02,0.918 -0.04,0.879"
   stroke-linecap="round"
   id="path6" />
</g>
		<g
   transform="matrix(0.1643,0,0,-0.1643,0,77.723618)"
   id="g7">
<path
   style="opacity:1;fill:#241616;fill-rule:nonzero;stroke:none;stroke-width:1;stroke-linecap:butt;stroke-linejoin:miter;stroke-miterlimit:4;stroke-dasharray:none;stroke-dashoffset:0"
   paint-order="stroke"
   transform="translate(-1327.1895,-1031.37)"
   d="m 810.566,727.32 c 0,37.461 30.372,67.809 67.825,67.809 h 859.829 c 37.44,0 67.82,-30.348 67.82,-67.809 0,-37.441 -30.38,-67.808 -67.82,-67.808 H 878.391 c -37.453,0 -67.825,30.367 -67.825,67.808 z m 838.244,414.14 v 231.61 c 6.87,1.84 13.83,3.57 20.86,5.15 12.56,2.96 26.21,5.45 40.96,7.48 14.78,2.03 29.16,2.67 43.18,1.93 10.7,-0.74 21.23,-3.13 31.54,-7.19 10.33,-4.07 19.47,-11.08 27.4,-21.05 7.95,-9.95 14.32,-23.24 19.11,-39.83 4.8,-16.63 7.18,-37.47 7.18,-62.57 0,-25.09 -2.38,-45.86 -7.18,-62.27 -4.79,-16.42 -11.16,-29.62 -19.11,-39.57 -7.93,-9.97 -17.07,-17.09 -27.4,-21.33 -10.31,-4.23 -20.84,-6.73 -31.54,-7.46 -14.02,-0.75 -28.4,0 -43.18,2.21 -14.75,2.22 -28.4,4.79 -40.96,7.75 -7.03,1.59 -13.99,3.3 -20.86,5.14 z m -77.6,-231.312 c 0,-30.308 -8.08,-50.117 -23.75,-61.718 h -475.69 c -15.5,11.601 -24.21,31.41 -25.68,61.718 v 450.072 h 261.24 263.88 z M 736.699,728.531 c 0,-26.211 8.543,-50.39 22.871,-70.16 15.938,-30.871 46.953,-49.16 97.715,-50.801 h 450.045 v 1.078 h 453.9 c 66.09,0 119.88,53.774 119.88,119.883 0,66.11 -53.79,119.899 -119.88,119.899 h -124.32 c 8.68,16.66 11.9,37.64 11.9,61.718 v 75.082 92.21 c 6.25,-1.88 12.6,-3.68 19.18,-5.34 12.56,-3.32 26.87,-6.27 42.91,-8.85 16.05,-2.58 32.75,-3.88 50.1,-3.88 25.09,0 47.42,5.18 66.99,15.51 19.55,10.33 35.97,24.53 49.26,42.62 13.3,18.07 23.34,39.02 30.17,62.83 6.82,23.79 10.26,49.35 10.26,76.66 0,26.94 -3.44,52.5 -10.26,76.68 -6.83,24.16 -16.87,45.18 -30.17,63.09 -13.29,17.91 -29.71,32.11 -49.26,42.63 -19.57,10.53 -41.9,15.78 -66.99,15.78 -17.35,0 -34.05,-1.38 -50.1,-4.15 -16.04,-2.77 -30.35,-5.63 -42.91,-8.58 -8.42,-2.33 -16.47,-4.73 -24.32,-7.17 H 1307.33 971.145 V 910.148 c 0,-25.308 4.382,-46.289 11.003,-61.718 H 856.594 c -19.629,0 -38.117,-4.84 -54.477,-13.239 -25.008,-12.812 -44.988,-34.062 -55.996,-60.082 -6.062,-14.328 -9.422,-30.078 -9.422,-46.578"
   stroke-linecap="round"
   id="path7" />
</g>
		<g
   transform="matrix(0.1643,0,0,-0.1643,-6.4036,-91.198682)"
   id="g8">
<path
   style="opacity:1;fill:#241616;fill-rule:nonzero;stroke:none;stroke-width:1;stroke-linecap:butt;stroke-linejoin:miter;stroke-miterlimit:4;stroke-dasharray:none;stroke-dashoffset:0"
   paint-order="stroke"
   transform="translate(-1288.2236,-2059.265)"
   d="m 1376.56,2169.09 c 35.06,134.31 -52.02,231.96 -52.02,231.96 0,0 33.37,-96.55 -6.92,-192.63 -47.01,-111.74 -76.71,-123.67 -114.62,-238.94 -43.04,-131.93 49.3,-252 49.3,-252 0,0 -32.74,99.27 13.03,233.3 24.69,73.06 86.36,122.61 111.23,218.31"
   stroke-linecap="round"
   id="path8" />
</g>
		<g
   transform="matrix(0.1643,0,0,-0.1643,7.0036,-52.470782)"
   id="g9">
<path
   style="opacity:1;fill:#241616;fill-rule:nonzero;stroke:none;stroke-width:1;stroke-linecap:butt;stroke-linejoin:miter;stroke-miterlimit:4;stroke-dasharray:none;stroke-dashoffset:0"
   paint-order="stroke"
   transform="translate(-1369.8068,-1823.605)"
   d="m 1406.09,2165.39 c 0,0 33.36,-96.55 -6.89,-192.62 -47.01,-111.74 -76.7,-123.69 -114.62,-238.95 -43.05,-131.91 49.31,-252 49.31,-252 0,0 -32.75,99.29 13.02,233.28 24.69,73.07 86.35,122.64 111.25,218.32 35.04,134.32 -52.07,231.97 -52.07,231.97"
   stroke-linecap="round"
   id="path9" />
</g>
</g>
</g>
<rect
   style="fill:none"
   id="rect10"
   width="1051.7758"
   height="272.20255"
   x="112.9548"
   y="53.699818"
   clip-path="url(#clipPath11)"
   transform="translate(-112.9548,-298.12659)" /></svg>
